<svg xmlns="http://www.w3.org/2000/svg" xmlns:xlink="http://www.w3.org/1999/xlink" viewBox="0 0 3234.57 2930.06"><defs><style>.cls-1{fill:url(#Безымянный_градиент_4);}.cls-2{fill:url(#Безымянный_градиент_4-2);}.cls-3{fill:url(#Безымянный_градиент_4-3);}.cls-4{fill:url(#Безымянный_градиент_4-4);}.cls-5{fill:none;}.cls-6{opacity:0.1;}.cls-7{clip-path:url(#clip-path);}.cls-8{mask:url(#mask);}.cls-9{fill:url(#Безымянный_градиент_3);}.cls-10{clip-path:url(#clip-path-2);}.cls-11{mask:url(#mask-2);}.cls-12{fill:url(#Безымянный_градиент_3-2);}.cls-13{clip-path:url(#clip-path-3);}.cls-14{mask:url(#mask-3);}.cls-15{fill:url(#Безымянный_градиент_3-3);}.cls-16{clip-path:url(#clip-path-4);}.cls-17{mask:url(#mask-4);}.cls-18{fill:url(#Безымянный_градиент_3-4);}</style><linearGradient id="Безымянный_градиент_4" x1="546.44" y1="995.62" x2="547.88" y2="995.62" gradientTransform="matrix(0, -172.35, -172.35, 0, 173395.82, 95843.11)" gradientUnits="userSpaceOnUse"><stop offset="0" stop-color="#fff"/><stop offset="1"/></linearGradient><linearGradient id="Безымянный_градиент_4-2" x1="545.94" y1="995.14" x2="547.39" y2="995.14" gradientTransform="matrix(0, -172.66, -172.66, 0, 174004.8, 95939.79)" xlink:href="#Безымянный_градиент_4"/><linearGradient id="Безымянный_градиент_4-3" x1="550.26" y1="1002.73" x2="551.7" y2="1002.73" gradientTransform="matrix(0, 172.35, 172.35, 0, -171385.15, -93570.31)" xlink:href="#Безымянный_градиент_4"/><linearGradient id="Безымянный_градиент_4-4" x1="549.59" y1="1002.31" x2="551.04" y2="1002.31" gradientTransform="matrix(0, 172.66, 172.66, 0, -172008.35, -93639.78)" xlink:href="#Безымянный_градиент_4"/><clipPath id="clip-path"><polygon class="cls-5" points="2148.4 1240.03 2567.28 1240.03 2567.28 1378.46 1847.32 1690.03 1108.54 1690.03 2148.4 1240.03"/></clipPath><mask id="mask" x="356.52" y="175.1" width="2878.05" height="2754.95" maskUnits="userSpaceOnUse"><rect class="cls-1" x="678.3" y="621.46" width="2234.48" height="1862.24" transform="translate(-546.47 1166.01) rotate(-31.48)"/></mask><linearGradient id="Безымянный_градиент_3" x1="571.11" y1="1531.36" x2="585.11" y2="1843.36" gradientTransform="matrix(0, -172.35, -172.35, 0, 173395.82, 95843.11)" gradientUnits="userSpaceOnUse"><stop offset="0" stop-color="#fff"/><stop offset="1" stop-color="#fff"/></linearGradient><clipPath id="clip-path-2"><polygon class="cls-5" points="1975.05 1304.73 2567.28 1594.05 2567.28 1690.03 2237.18 1690.03 1697.94 1426.6 1975.05 1304.73"/></clipPath><mask id="mask-2" x="1496.24" y="879.84" width="1380.49" height="1313.6" maskUnits="userSpaceOnUse"><rect class="cls-2" x="1647.6" y="1090.39" width="1077.78" height="892.5" transform="translate(-476.25 1308.93) rotate(-30.21)"/></mask><linearGradient id="Безымянный_градиент_3-2" x1="545.94" y1="995.14" x2="547.39" y2="995.14" gradientTransform="matrix(0, -172.66, -172.66, 0, 174004.82, 95939.79)" xlink:href="#Безымянный_градиент_3"/><clipPath id="clip-path-3"><polygon class="cls-5" points="1086.16 1690.03 667.28 1690.03 667.28 1551.6 1387.25 1240.03 2126.03 1240.03 1086.16 1690.03"/></clipPath><mask id="mask-3" x="0" y="0" width="2878.05" height="2754.95" maskUnits="userSpaceOnUse"><rect class="cls-3" x="321.79" y="446.36" width="2234.48" height="1862.24" transform="translate(-507.5 954.09) rotate(-31.48)"/></mask><linearGradient id="Безымянный_градиент_3-3" x1="574.93" y1="1538.46" x2="588.93" y2="1850.46" gradientTransform="matrix(0, 172.35, 172.35, 0, -171385.15, -93570.31)" xlink:href="#Безымянный_градиент_3"/><clipPath id="clip-path-4"><polygon class="cls-5" points="1259.51 1625.33 667.28 1336.01 667.28 1240.03 997.39 1240.03 1536.62 1503.46 1259.51 1625.33"/></clipPath><mask id="mask-4" x="357.83" y="736.61" width="1380.49" height="1313.6" maskUnits="userSpaceOnUse"><rect class="cls-4" x="509.18" y="947.17" width="1077.78" height="892.5" transform="translate(-558.8 716.64) rotate(-30.21)"/></mask><linearGradient id="Безымянный_градиент_3-4" x1="549.59" y1="1002.31" x2="551.04" y2="1002.31" gradientTransform="matrix(0, 172.66, 172.66, 0, -172008.37, -93639.79)" xlink:href="#Безымянный_градиент_3"/></defs><title>блок регистрации</title><g id="Слой_2" data-name="Слой 2"><g id="Слой_1-2" data-name="Слой 1"><g class="cls-6"><g class="cls-7"><g class="cls-8"><rect class="cls-9" x="678.3" y="621.46" width="2234.48" height="1862.24" transform="translate(-546.47 1166.01) rotate(-31.48)"/></g></g></g><g class="cls-6"><g class="cls-10"><g class="cls-11"><rect class="cls-12" x="1647.6" y="1090.39" width="1077.78" height="892.5" transform="matrix(0.86, -0.5, 0.5, 0.86, -476.25, 1308.93)"/></g></g></g><g class="cls-6"><g class="cls-13"><g class="cls-14"><rect class="cls-15" x="321.79" y="446.36" width="2234.48" height="1862.24" transform="translate(-507.5 954.09) rotate(-31.48)"/></g></g></g><g class="cls-6"><g class="cls-16"><g class="cls-17"><rect class="cls-18" x="509.18" y="947.17" width="1077.78" height="892.5" transform="matrix(0.86, -0.5, 0.5, 0.86, -558.8, 716.64)"/></g></g></g></g></g></svg>