<svg xmlns="http://www.w3.org/2000/svg" xmlns:xlink="http://www.w3.org/1999/xlink" viewBox="0 0 1920 734.82"><defs><style>.cls-1,.cls-4,.cls-7{opacity:0.5;}.cls-1{fill:url(#Безымянный_градиент_75);}.cls-2,.cls-5,.cls-8{opacity:0.55;}.cls-2{fill:url(#Безымянный_градиент_54);}.cls-3{opacity:0.2;}.cls-4{fill:url(#Безымянный_градиент_75-2);}.cls-5{fill:url(#Безымянный_градиент_54-2);}.cls-6{opacity:0.3;}.cls-7{fill:url(#Безымянный_градиент_75-3);}.cls-8{fill:url(#Безымянный_градиент_54-3);}</style><linearGradient id="Безымянный_градиент_75" x1="661.5" y1="343.09" x2="2135.85" y2="119.76" gradientUnits="userSpaceOnUse"><stop offset="0.01" stop-color="#9cdeff"/><stop offset="1" stop-color="#fff" stop-opacity="0"/></linearGradient><linearGradient id="Безымянный_градиент_54" x1="3607.68" y1="-47.33" x2="2642.04" y2="-1.96" gradientTransform="translate(2985.02 402.63) rotate(180)" gradientUnits="userSpaceOnUse"><stop offset="0" stop-color="#59c7e9" stop-opacity="0"/><stop offset="0.43" stop-color="#59c7e9" stop-opacity="0.3"/><stop offset="1" stop-color="#00aded"/></linearGradient><linearGradient id="Безымянный_градиент_75-2" x1="1958.48" y1="482.97" x2="1351.39" y2="729.3" gradientTransform="matrix(0.97, 0.26, -0.26, 0.97, -23.37, -868.23)" xlink:href="#Безымянный_градиент_75"/><linearGradient id="Безымянный_градиент_54-2" x1="2208.07" y1="64.25" x2="1761.11" y2="85.24" gradientTransform="matrix(1, 0, 0, 1, 0, 0)" xlink:href="#Безымянный_градиент_54"/><linearGradient id="Безымянный_градиент_75-3" x1="845.1" y1="1443.39" x2="237.88" y2="1689.78" gradientTransform="matrix(-0.97, -0.26, 0.26, -0.97, 620.51, 2244.72)" xlink:href="#Безымянный_градиент_75"/><linearGradient id="Безымянный_градиент_54-3" x1="885.49" y1="706.19" x2="438.11" y2="727.2" gradientTransform="translate(597.14 1376.48) rotate(180)" xlink:href="#Безымянный_градиент_54"/></defs><title>блок с цифрами</title><g id="Слой_2" data-name="Слой 2"><g id="Слой_1-2" data-name="Слой 1"><polygon class="cls-1" points="1920 0 349.24 229.71 261.49 556.41 1915.1 313.87 1920 0"/><polygon class="cls-2" points="0 595.08 261.49 556.41 348.13 229.98 0 281.92 0 595.08"/><g class="cls-3"><polygon class="cls-4" points="1065.02 264.99 1758.09 163.26 1797.17 18.07 1067.2 125.22 1065.02 264.99"/><polygon class="cls-5" points="1920 0 1797.18 18.03 1758.59 163.14 1920 139.45 1920 0"/></g><g class="cls-6"><polygon class="cls-7" points="855.06 469.18 161.54 571.09 122.83 716.75 852.8 609.6 855.06 469.18"/><polygon class="cls-8" points="0 734.82 122.82 716.79 161.54 571.09 0 595.37 0 734.82"/></g></g></g></svg>