<svg xmlns="http://www.w3.org/2000/svg" xmlns:xlink="http://www.w3.org/1999/xlink" viewBox="0 0 3197 757.18"><defs><style>.cls-1,.cls-2,.cls-3,.cls-4{opacity:0.1;}.cls-1{fill:url(#Безымянный_градиент_11);}.cls-2{fill:url(#Безымянный_градиент_11-2);}.cls-3{fill:url(#Безымянный_градиент_11-3);}.cls-4{fill:url(#Безымянный_градиент_11-4);}</style><linearGradient id="Безымянный_градиент_11" x1="2096.28" y1="643.53" x2="1904.26" y2="241.49" gradientUnits="userSpaceOnUse"><stop offset="0" stop-color="#fff"/><stop offset="1" stop-color="#fff" stop-opacity="0"/></linearGradient><linearGradient id="Безымянный_градиент_11-2" x1="2995.44" y1="763.39" x2="2449.39" y2="445.36" xlink:href="#Безымянный_градиент_11"/><linearGradient id="Безымянный_градиент_11-3" x1="1042.13" y1="142.02" x2="1366.16" y2="556.06" xlink:href="#Безымянный_градиент_11"/><linearGradient id="Безымянный_градиент_11-4" x1="148.08" y1="-50.85" x2="868.08" y2="385.15" xlink:href="#Безымянный_градиент_11"/></defs><title>Ресурс 1</title><g id="Слой_2" data-name="Слой 2"><g id="Слой_1-2" data-name="Слой 1"><polygon class="cls-1" points="2492.18 0 3197 0 3197 232.93 1985.57 757.18 742.48 757.18 2492.18 0"/><polygon class="cls-2" points="2200.49 108.87 3197 595.68 3197 757.18 2641.56 757.18 1734.22 313.93 2200.49 108.87"/><polygon class="cls-3" points="704.82 757.18 0 757.18 0 524.26 1211.44 0 2454.54 0 704.82 757.18"/><polygon class="cls-4" points="996.5 648.32 0 161.5 0 0 555.45 0 1462.78 443.26 996.5 648.32"/></g></g></svg>