<svg xmlns="http://www.w3.org/2000/svg" viewBox="0 0 70.22 70.22"><defs><style>.cls-1,.cls-2,.cls-3{fill:#fff;}.cls-1{opacity:0.2;}.cls-3{opacity:0.6;}</style></defs><title>ico 3</title><g id="Слой_2" data-name="Слой 2"><g id="Слой_1-2" data-name="Слой 1"><circle class="cls-1" cx="35.11" cy="35.11" r="35.11"/><path class="cls-2" d="M49.06,51.27h.84a1.37,1.37,0,0,0,1.37-1.37V36.1H49.06Z"/><circle class="cls-3" cx="24.44" cy="40.02" r="0.99"/><circle class="cls-3" cx="31.05" cy="30.47" r="0.99"/><circle class="cls-3" cx="25.86" cy="23.67" r="0.99"/><circle class="cls-3" cx="41.51" cy="24.47" r="0.99"/><path class="cls-2" d="M46.16,26.42a1,1,0,0,1-1-1V19h1.56v5.91h4.52V20.33A1.37,1.37,0,0,0,49.9,19H20.33A1.37,1.37,0,0,0,19,20.33V49.9a1.37,1.37,0,0,0,1.37,1.37H32V47.35H19V45.79H32.57a1,1,0,0,1,1,1v4.51H37.3V41.43H31.24a1,1,0,0,1-1-1V32.89A2.59,2.59,0,0,1,28.93,29a1.78,1.78,0,0,1,.61-.62,2.59,2.59,0,0,1,4.06,2.11,2.55,2.55,0,0,1-1.77,2.42v7h6.06a1,1,0,0,1,1,1V51.27h3.5V36.1H36.3a1,1,0,0,1-1-1V19h1.56V34.54h6.06a1,1,0,0,1,1,1V51.27H47.5V35.51a1,1,0,0,1,1-1h2.8v-3H41.7a1,1,0,0,1-1-1V26.89A2.59,2.59,0,0,1,39.39,23a1.78,1.78,0,0,1,.61-.62,2.59,2.59,0,0,1,4.06,2.11,2.55,2.55,0,0,1-1.77,2.42v3.05h9V26.42ZM22.93,42.12a1.79,1.79,0,0,1-.61-.62,2.59,2.59,0,0,1,1.34-3.91V29.94H19V28.38h5.3a1,1,0,0,1,1,1V37.6A2.55,2.55,0,0,1,27,40,2.59,2.59,0,0,1,22.93,42.12Zm8.89-18.64a1,1,0,0,1-1,1H28.27a2.59,2.59,0,0,1-3.91,1.34,1.78,1.78,0,0,1-.62-.61,2.59,2.59,0,0,1,2.11-4.06,2.55,2.55,0,0,1,2.42,1.77h2V19h1.56Z"/></g></g></svg>