<svg xmlns="http://www.w3.org/2000/svg" viewBox="0 0 70.22 70.22"><defs><style>.cls-1,.cls-2{fill:#fff;}.cls-1{opacity:0.2;}.cls-3{opacity:0.6;}</style></defs><title>ico4</title><g id="Слой_2" data-name="Слой 2"><g id="Слой_1-2" data-name="Слой 1"><circle class="cls-1" cx="35.11" cy="35.11" r="35.11"/><path class="cls-2" d="M43.27,21.12H15.34a1.29,1.29,0,0,0-1.29,1.29V39.46a1.29,1.29,0,0,0,1.29,1.29H43.27a1.29,1.29,0,0,0,1.29-1.29V22.41A1.29,1.29,0,0,0,43.27,21.12ZM25.13,25.86v3.88h-7V25.86Z"/><g class="cls-3"><path class="cls-2" d="M55.28,29.66H26.56a.89.89,0,0,0-.89.89V34h30.5V30.55A.89.89,0,0,0,55.28,29.66Z"/><path class="cls-2" d="M25.67,48.4a.89.89,0,0,0,.89.89H55.28a.89.89,0,0,0,.89-.89V38.09H25.67Z"/></g></g></g></svg>