<svg xmlns="http://www.w3.org/2000/svg" xmlns:xlink="http://www.w3.org/1999/xlink" viewBox="0 0 180.11 137.85"><defs><style>.cls-1{fill:#ededf4;}.cls-2{fill:#62ade6;}.cls-3{fill:url(#linear-gradient);}.cls-4{fill:#d5e8f7;}.cls-5{fill:url(#linear-gradient-2);}.cls-6{fill:url(#linear-gradient-3);}.cls-7{fill:url(#linear-gradient-4);}.cls-8{fill:url(#linear-gradient-5);}.cls-9{fill:url(#linear-gradient-6);}.cls-10{fill:url(#linear-gradient-7);}.cls-11{fill:url(#linear-gradient-8);}.cls-12{fill:url(#linear-gradient-9);}.cls-13{fill:url(#linear-gradient-10);}.cls-14{fill:url(#linear-gradient-11);}.cls-15{fill:url(#linear-gradient-12);}.cls-16{fill:url(#linear-gradient-13);}.cls-17{fill:url(#linear-gradient-14);}.cls-18{fill:url(#linear-gradient-15);}</style><linearGradient id="linear-gradient" x1="47.26" y1="65.62" x2="147.95" y2="65.62" gradientUnits="userSpaceOnUse"><stop offset="0.29" stop-color="#fff"/><stop offset="1" stop-color="#d5e8f7"/></linearGradient><linearGradient id="linear-gradient-2" x1="1.25" y1="81.18" x2="21.26" y2="81.18" gradientUnits="userSpaceOnUse"><stop offset="0.3" stop-color="#fff"/><stop offset="0.83" stop-color="#d6e9f7"/><stop offset="1" stop-color="#d5e8f7"/></linearGradient><linearGradient id="linear-gradient-3" x1="1.25" y1="75.18" x2="21.26" y2="75.18" xlink:href="#linear-gradient-2"/><linearGradient id="linear-gradient-4" x1="1.25" y1="69.18" x2="21.26" y2="69.18" xlink:href="#linear-gradient-2"/><linearGradient id="linear-gradient-5" x1="1.25" y1="63.18" x2="23.01" y2="63.18" xlink:href="#linear-gradient-2"/><linearGradient id="linear-gradient-6" x1="1.25" y1="87.18" x2="21.26" y2="87.18" xlink:href="#linear-gradient-2"/><linearGradient id="linear-gradient-7" x1="22.26" y1="93.26" x2="50.95" y2="93.26" xlink:href="#linear-gradient-2"/><linearGradient id="linear-gradient-8" x1="22.26" y1="87.26" x2="50.95" y2="87.26" xlink:href="#linear-gradient-2"/><linearGradient id="linear-gradient-9" x1="22.26" y1="81.26" x2="50.95" y2="81.26" xlink:href="#linear-gradient-2"/><linearGradient id="linear-gradient-10" x1="22.26" y1="75.26" x2="50.95" y2="75.26" xlink:href="#linear-gradient-2"/><linearGradient id="linear-gradient-11" x1="22.26" y1="99.26" x2="50.95" y2="99.26" xlink:href="#linear-gradient-2"/><linearGradient id="linear-gradient-12" x1="1.25" y1="57.14" x2="29.94" y2="57.14" xlink:href="#linear-gradient-2"/><linearGradient id="linear-gradient-13" x1="1.25" y1="51.14" x2="29.94" y2="51.14" xlink:href="#linear-gradient-2"/><linearGradient id="linear-gradient-14" x1="1.25" y1="45.14" x2="29.94" y2="45.14" xlink:href="#linear-gradient-2"/><linearGradient id="linear-gradient-15" x1="1.25" y1="39.14" x2="29.94" y2="39.14" xlink:href="#linear-gradient-2"/></defs><title>торговля главная</title><g id="Слой_2" data-name="Слой 2"><g id="Layer_1" data-name="Layer 1"><path class="cls-1" d="M57.25,95.82,51.7,92.62h0l-.08,0-.12,0H51.4l-.12,0-.08,0-.08.06-.07.08,0,0v0A.79.79,0,0,0,51,93s0,0,0,0v3.56c0,2.1-1.48,4.11-4.13,5.64-5.67,3.27-14.86,3.29-20.49,0a.5.5,0,1,0-.5.87l9.87,5.7a21.84,21.84,0,0,0,10.69,2.55,22.1,22.1,0,0,0,10.81-2.58c3-1.72,4.63-4,4.63-6.53S60.2,97.52,57.25,95.82Z" transform="translate(-0.25 -0.25)"/><path class="cls-1" d="M179.1,127.53l-27-15.18h0a.49.49,0,0,0-.24-.07.5.5,0,0,0-.5.5v13.46l-3.18,1.84a.5.5,0,0,0-.18.68l0,0,0,0L162,137a8.18,8.18,0,0,0,8.15,0l9-5.17a2.48,2.48,0,0,0,0-4.32Z" transform="translate(-0.25 -0.25)"/><path class="cls-1" d="M22.6,98.49a.5.5,0,0,0,0-.09v0a4.66,4.66,0,0,1-.32-1.71v0h0V92.29a.47.47,0,0,1,0-.13l0,0a.48.48,0,0,0,0-.1l0-.07L22,91.89l-.06,0-.11,0h-.24c-5.51,1.47-12.06.81-16.32-1.65a.5.5,0,1,0-.5.87l9.87,5.7A19.49,19.49,0,0,0,22.05,99h.06a.5.5,0,0,0,.18,0l0,0,.11-.07.05-.07.06-.08a.49.49,0,0,0,0-.09.47.47,0,0,0,0-.07s0,0,0,0A.49.49,0,0,0,22.6,98.49Z" transform="translate(-0.25 -0.25)"/><path class="cls-2" d="M152.36,59.44l0,67.09a.52.52,0,0,1-.25.44l-3.43,2a.54.54,0,0,1-.25.06.57.57,0,0,1-.25-.06L51.95,73.48V96.64a0,0,0,0,0,0,0c0,2.45-1.67,4.74-4.62,6.45a22.16,22.16,0,0,1-10.81,2.59,21.82,21.82,0,0,1-10.68-2.55c-3-1.71-4.58-4-4.57-6.49a0,0,0,0,1,0,0,0,0,0,0,1,0,0V92.91a24.79,24.79,0,0,1-5.72.67A22,22,0,0,1,4.82,91c-3-1.7-4.58-4-4.57-6.48h0v-54s0,0,0,0C.3,28,1.93,25.74,4.88,24c6-3.43,15.59-3.45,21.49,0,2.95,1.7,4.57,4,4.57,6.46,0,0,0,0,0,0h0V58.23a24.51,24.51,0,0,1,15.32,1.33l0-56.83s0,0,0,0a.48.48,0,0,1,0-.17s0,0,0-.06a.65.65,0,0,1,.17-.16L50,.32a.5.5,0,0,1,.5,0L152.11,59h0a.52.52,0,0,1,.16.17.46.46,0,0,1,.06.22S152.36,59.43,152.36,59.44Zm-3.93,1.4,2.43-1.4L50.21,1.33l-2.43,1.4Zm-.48,66.81,0-65.94L47.28,3.59l0,56.48h0l.09.05c2.87,1.66,4.47,3.88,4.55,6.27a.54.54,0,0,1,0,.21c0,.08,0,.16,0,.23s0,.07,0,.1v5.38Zm-97-61.06c0-2.09-1.45-4.08-4.07-5.59a20.8,20.8,0,0,0-10.18-2.43A21,21,0,0,0,26.36,61c-2.61,1.5-4.06,3.46-4.12,5.52a.43.43,0,0,1,0,.11c0,2.1,1.43,4.09,4.07,5.61,3.86,2.23,9.41,2.93,14.34,2.08a18.55,18.55,0,0,0,6.12-2.11C49.45,70.71,50.92,68.7,50.92,66.59Zm-21-8.1v-.8a7.71,7.71,0,0,1-.79,1Zm0-28c0-2.09-1.45-4.08-4.07-5.59a20.8,20.8,0,0,0-10.18-2.43A21.13,21.13,0,0,0,5.38,24.9c-2.66,1.54-4.13,3.55-4.13,5.67s1.45,4.07,4.07,5.59c5.63,3.25,14.82,3.23,20.49,0C28.47,34.58,29.94,32.57,29.94,30.46Z" transform="translate(-0.25 -0.25)"/><path class="cls-3" d="M147.93,61.71l0,65.94-96-55.33V66.94s0-.07,0-.1,0-.15,0-.23a.54.54,0,0,0,0-.21c-.08-2.39-1.68-4.61-4.55-6.27l-.09-.05h0l0-56.48Z" transform="translate(-0.25 -0.25)"/><polygon class="cls-4" points="151.11 60.05 151.13 125.99 148.7 127.4 148.68 61.46 151.11 60.05"/><path class="cls-5" d="M5.32,84.16c-2.64-1.52-4.08-3.52-4.07-5.62V75.79A10.11,10.11,0,0,0,4.82,79c.12.08.26.14.39.21v3.3a.5.5,0,0,0,1,0V79.72l.72.31v1.66a.5.5,0,0,0,.5.5.51.51,0,0,0,.5-.5v-1.3c.58.19,1.17.37,1.79.52v1.87a.5.5,0,0,0,.5.5.5.5,0,0,0,.5-.5V81.11a25.49,25.49,0,0,0,4.82.46,24.72,24.72,0,0,0,5.72-.66v5C15.83,87.23,9.49,86.57,5.32,84.16Z" transform="translate(-0.25 -0.25)"/><path class="cls-6" d="M5.32,78.16c-2.64-1.52-4.08-3.52-4.07-5.62V69.79A10.11,10.11,0,0,0,4.82,73c.12.08.26.14.39.21v3.3a.5.5,0,0,0,1,0v-2.8l.72.3v1.66a.5.5,0,0,0,.5.5.51.51,0,0,0,.5-.5v-1.3c.58.19,1.17.37,1.79.52v1.87a.5.5,0,0,0,.5.5.5.5,0,0,0,.5-.5V75.12a25.39,25.39,0,0,0,4.81.46,24.88,24.88,0,0,0,5.73-.67v5C15.83,81.23,9.47,80.56,5.32,78.16Z" transform="translate(-0.25 -0.25)"/><path class="cls-7" d="M5.32,72.16c-2.64-1.52-4.08-3.52-4.07-5.62V63.79A10.11,10.11,0,0,0,4.82,67c.12.08.26.14.39.21v3.3a.5.5,0,0,0,1,0V67.72l.72.31v1.66a.5.5,0,0,0,.5.5.51.51,0,0,0,.5-.5v-1.3c.58.19,1.17.37,1.79.52v1.87a.5.5,0,0,0,.5.5.5.5,0,0,0,.5-.5V69.11a25.49,25.49,0,0,0,4.82.47,24.79,24.79,0,0,0,5.72-.67v5C15.83,75.23,9.49,74.57,5.32,72.16Z" transform="translate(-0.25 -0.25)"/><path class="cls-8" d="M5.32,66.16c-2.64-1.52-4.08-3.52-4.07-5.62V57.79A10.11,10.11,0,0,0,4.82,61c.12.08.26.14.39.21v3.3a.5.5,0,0,0,1,0v-2.8l.72.3v1.66a.5.5,0,0,0,.5.5.51.51,0,0,0,.5-.5v-1.3c.58.2,1.17.37,1.79.52v1.87a.5.5,0,0,0,.5.5.5.5,0,0,0,.5-.5V63.12a26.08,26.08,0,0,0,4.78.45A24.39,24.39,0,0,0,23,62.42a6.41,6.41,0,0,0-1.78,4.28c0,.13,0,.26,0,.39v.79C15.83,69.23,9.48,68.56,5.32,66.16Z" transform="translate(-0.25 -0.25)"/><path class="cls-9" d="M1.25,81.79A10.11,10.11,0,0,0,4.82,85c.12.08.26.14.39.21v3.3a.5.5,0,0,0,1,0v-2.8l.72.3v1.66a.5.5,0,0,0,.5.5.51.51,0,0,0,.5-.5v-1.3c.58.19,1.17.37,1.79.52v1.87a.5.5,0,0,0,.5.5.5.5,0,0,0,.5-.5V87.12a25.39,25.39,0,0,0,4.81.46,24.88,24.88,0,0,0,5.73-.67v5c-5.43,1.35-11.78.68-15.94-1.72-2.64-1.52-4.08-3.52-4.07-5.62h0V81.79Z" transform="translate(-0.25 -0.25)"/><path class="cls-10" d="M26.33,96.28c-2.64-1.52-4.08-3.51-4.07-5.61V87.92a10.3,10.3,0,0,0,3.57,3.23l.39.2v3.31a.51.51,0,0,0,.5.5.5.5,0,0,0,.5-.5V91.85l.72.31v1.65a.5.5,0,0,0,.5.5.5.5,0,0,0,.5-.5V92.52c.58.19,1.17.37,1.79.51v1.88a.5.5,0,0,0,.5.5.51.51,0,0,0,.5-.5V93.24a25.23,25.23,0,0,0,4.78.46,22.16,22.16,0,0,0,10.81-2.59,10.31,10.31,0,0,0,3.63-3.3v2.8c0,2.1-1.48,4.1-4.13,5.64C41.15,99.52,32,99.53,26.33,96.28Z" transform="translate(-0.25 -0.25)"/><path class="cls-11" d="M26.22,88.66a.51.51,0,0,0,.5.5.5.5,0,0,0,.5-.5V85.85l.72.31v1.65a.5.5,0,0,0,.5.5.5.5,0,0,0,.5-.5V86.52c.58.19,1.17.37,1.79.51v1.88a.5.5,0,0,0,.5.5.51.51,0,0,0,.5-.5V87.24a25.23,25.23,0,0,0,4.78.46,22.16,22.16,0,0,0,10.81-2.59,10.31,10.31,0,0,0,3.63-3.3v2.8c0,2.1-1.48,4.1-4.13,5.64-5.67,3.27-14.86,3.28-20.49,0-2.64-1.52-4.08-3.51-4.07-5.61V81.92a10.3,10.3,0,0,0,3.57,3.23l.39.2Z" transform="translate(-0.25 -0.25)"/><path class="cls-12" d="M26.33,84.28c-2.64-1.52-4.08-3.51-4.07-5.61V75.92a10.3,10.3,0,0,0,3.57,3.23l.39.2v3.31a.51.51,0,0,0,.5.5.5.5,0,0,0,.5-.5V79.85l.72.31v1.65a.5.5,0,0,0,.5.5.5.5,0,0,0,.5-.5V80.52c.58.19,1.17.37,1.79.51v1.88a.5.5,0,0,0,.5.5.51.51,0,0,0,.5-.5V81.24a25.23,25.23,0,0,0,4.78.46,22.16,22.16,0,0,0,10.81-2.59,10.31,10.31,0,0,0,3.63-3.3v2.8c0,2.1-1.48,4.1-4.13,5.64C41.15,87.52,32,87.53,26.33,84.28Z" transform="translate(-0.25 -0.25)"/><path class="cls-13" d="M26.33,78.28c-2.64-1.52-4.08-3.51-4.07-5.61V70a10.34,10.34,0,0,0,3.53,3.19l.43.22v3.28a.51.51,0,0,0,.5.5.5.5,0,0,0,.5-.5V73.87l.72.31v1.63a.5.5,0,0,0,.5.5.5.5,0,0,0,.5-.5V74.53c.58.2,1.17.37,1.79.52v1.86a.5.5,0,0,0,.5.5.51.51,0,0,0,.5-.5V75.25a24.91,24.91,0,0,0,4.75.45,25.44,25.44,0,0,0,4.37-.37,19.5,19.5,0,0,0,6.47-2.22,10.31,10.31,0,0,0,3.63-3.3v2.8c0,2.1-1.48,4.1-4.13,5.64C41.15,81.52,32,81.53,26.33,78.28Z" transform="translate(-0.25 -0.25)"/><path class="cls-14" d="M26.33,102.28c-2.64-1.52-4.08-3.51-4.07-5.61v0h0V93.92a10.3,10.3,0,0,0,3.57,3.23l.39.2v3.31a.51.51,0,0,0,.5.5.5.5,0,0,0,.5-.5V97.85l.72.31v1.65a.5.5,0,0,0,.5.5.5.5,0,0,0,.5-.5V98.52c.58.19,1.17.37,1.79.51v1.88a.5.5,0,0,0,.5.5.51.51,0,0,0,.5-.5V99.24a25.23,25.23,0,0,0,4.78.46,22.16,22.16,0,0,0,10.81-2.59,10.31,10.31,0,0,0,3.63-3.3v2.8c0,2.1-1.48,4.1-4.13,5.64C41.15,105.52,32,105.53,26.33,102.28Z" transform="translate(-0.25 -0.25)"/><path class="cls-15" d="M6.21,58.53v-2.8l.72.3v1.66a.5.5,0,0,0,.5.5.51.51,0,0,0,.5-.5v-1.3c.58.2,1.17.37,1.79.52v1.87a.5.5,0,0,0,.5.5.5.5,0,0,0,.5-.5V57.12a26.08,26.08,0,0,0,4.78.45A22.15,22.15,0,0,0,26.31,55a10.4,10.4,0,0,0,3.63-3.3v2.79c0,2.11-1.48,4.11-4.13,5.64-5.67,3.27-14.86,3.29-20.49,0-2.64-1.52-4.08-3.52-4.07-5.62V51.79A10.11,10.11,0,0,0,4.82,55c.12.08.26.14.39.21v3.3a.5.5,0,0,0,1,0Z" transform="translate(-0.25 -0.25)"/><path class="cls-16" d="M6.21,52.53v-2.8l.72.3v1.66a.5.5,0,0,0,.5.5.51.51,0,0,0,.5-.5v-1.3c.58.2,1.17.37,1.79.52v1.87a.5.5,0,0,0,.5.5.5.5,0,0,0,.5-.5V51.12a26.08,26.08,0,0,0,4.78.45A22.15,22.15,0,0,0,26.31,49a10.4,10.4,0,0,0,3.63-3.3v2.79c0,2.11-1.48,4.11-4.13,5.64-5.67,3.27-14.86,3.29-20.49,0-2.64-1.52-4.08-3.52-4.07-5.62V45.79A10.11,10.11,0,0,0,4.82,49c.12.08.26.14.39.21v3.3a.5.5,0,0,0,1,0Z" transform="translate(-0.25 -0.25)"/><path class="cls-17" d="M6.21,46.53v-2.8l.72.3v1.66a.5.5,0,0,0,.5.5.51.51,0,0,0,.5-.5v-1.3c.58.2,1.17.37,1.79.52v1.87a.5.5,0,0,0,.5.5.5.5,0,0,0,.5-.5V45.12a26.08,26.08,0,0,0,4.78.45A22.15,22.15,0,0,0,26.31,43a10.4,10.4,0,0,0,3.63-3.3v2.79c0,2.11-1.48,4.11-4.13,5.64-5.67,3.27-14.86,3.29-20.49,0-2.64-1.52-4.08-3.52-4.07-5.62V39.79A10.11,10.11,0,0,0,4.82,43c.12.08.26.14.39.21v3.3a.5.5,0,0,0,1,0Z" transform="translate(-0.25 -0.25)"/><path class="cls-18" d="M6.21,40.53v-2.8l.72.3v1.66a.5.5,0,0,0,.5.5.51.51,0,0,0,.5-.5v-1.3c.58.2,1.17.37,1.79.52v1.87a.5.5,0,0,0,.5.5.5.5,0,0,0,.5-.5V39.12a26.08,26.08,0,0,0,4.78.45A22.15,22.15,0,0,0,26.31,37a10.4,10.4,0,0,0,3.63-3.3v2.79c0,2.11-1.48,4.11-4.13,5.64-5.67,3.27-14.86,3.29-20.49,0-2.64-1.52-4.08-3.52-4.07-5.62V33.79A10.11,10.11,0,0,0,4.82,37c.12.08.26.14.39.21v3.3a.5.5,0,0,0,1,0Z" transform="translate(-0.25 -0.25)"/><path class="cls-2" d="M76,67.81l14.07-2.15a.56.56,0,0,1,.38,0,.48.48,0,0,1,.3.24l7,12.16,31.68-18.29a.5.5,0,0,1,.5,0,.52.52,0,0,1,.25.43v47.91a.52.52,0,0,1-.25.43.48.48,0,0,1-.5,0L61,69.46a.52.52,0,0,1-.25-.44V49.35a.5.5,0,0,1,.93-.25ZM97.86,79.13a.51.51,0,0,1-.69-.19l-7-12.16L76.08,68.93a.55.55,0,0,1-.38,0,.47.47,0,0,1-.3-.23L61.78,51.22V68.73l67.44,38.47V61Z" transform="translate(-0.25 -0.25)"/><path class="cls-2" d="M95.8,44.34a.5.5,0,0,0,.75-.43V40.42A.5.5,0,0,0,96.3,40L61.55,19.92a.5.5,0,0,0-.75.43v3.52a.5.5,0,0,0,.25.43Z" transform="translate(-0.25 -0.25)"/><path class="cls-2" d="M95.8,53a.5.5,0,0,0,.75-.43V49.12a.5.5,0,0,0-.25-.43L61.55,28.62a.5.5,0,0,0-.75.43v3.52a.5.5,0,0,0,.25.43Z" transform="translate(-0.25 -0.25)"/><path class="cls-2" d="M86.94,56.61a.5.5,0,0,0,.75-.43V52.69a.5.5,0,0,0-.25-.43l-25.88-15a.5.5,0,0,0-.75.43v3.52a.5.5,0,0,0,.25.43Z" transform="translate(-0.25 -0.25)"/><polygon class="cls-4" points="95.3 49.16 95.3 51.5 61.56 32.03 61.56 29.67 95.3 49.16"/><polygon class="cls-4" points="95.3 40.45 95.3 42.79 61.56 23.33 61.56 20.97 95.3 40.45"/><polygon class="cls-4" points="86.44 52.72 86.44 55.06 61.56 40.71 61.56 38.35 86.44 52.72"/></g></g></svg>