<svg xmlns="http://www.w3.org/2000/svg" xmlns:xlink="http://www.w3.org/1999/xlink" viewBox="0 0 137.83 125.41"><defs><style>.cls-1{fill:#ededf4;}.cls-2{fill:#62ade6;}.cls-3{fill:url(#linear-gradient);}.cls-4{fill:url(#linear-gradient-2);}.cls-5{fill:url(#linear-gradient-3);}.cls-6{fill:url(#linear-gradient-4);}.cls-7{fill:url(#linear-gradient-5);}.cls-8{fill:url(#linear-gradient-6);}.cls-9{fill:url(#linear-gradient-7);}.cls-10{fill:url(#linear-gradient-8);}.cls-11{fill:url(#linear-gradient-9);}.cls-12{fill:url(#linear-gradient-10);}.cls-13{fill:url(#linear-gradient-11);}.cls-14{fill:url(#linear-gradient-12);}.cls-15{fill:#d5e8f7;}.cls-16{fill:url(#linear-gradient-13);}.cls-17{fill:url(#linear-gradient-14);}.cls-18{fill:url(#linear-gradient-15);}.cls-19{fill:url(#linear-gradient-16);}.cls-20{fill:url(#linear-gradient-17);}.cls-21{fill:url(#linear-gradient-18);}.cls-22{fill:url(#linear-gradient-19);}.cls-23{fill:url(#linear-gradient-20);}.cls-24{fill:url(#linear-gradient-21);}.cls-25{fill:url(#linear-gradient-22);}.cls-26{fill:url(#linear-gradient-23);}</style><linearGradient id="linear-gradient" x1="71.08" y1="91.76" x2="84.63" y2="91.76" gradientUnits="userSpaceOnUse"><stop offset="0.3" stop-color="#fff"/><stop offset="0.83" stop-color="#d6e9f7"/><stop offset="1" stop-color="#d5e8f7"/></linearGradient><linearGradient id="linear-gradient-2" x1="69.09" y1="83.84" x2="84.63" y2="83.84" xlink:href="#linear-gradient"/><linearGradient id="linear-gradient-3" x1="71.56" y1="75.93" x2="84.63" y2="75.93" xlink:href="#linear-gradient"/><linearGradient id="linear-gradient-4" x1="70.26" y1="68" x2="84.63" y2="68" xlink:href="#linear-gradient"/><linearGradient id="linear-gradient-5" x1="64.42" y1="59.29" x2="87.36" y2="59.29" xlink:href="#linear-gradient"/><linearGradient id="linear-gradient-6" x1="1" y1="86.37" x2="23.88" y2="86.37" xlink:href="#linear-gradient"/><linearGradient id="linear-gradient-7" x1="1" y1="38.86" x2="23.88" y2="38.86" xlink:href="#linear-gradient"/><linearGradient id="linear-gradient-8" x1="1" y1="78.45" x2="28.45" y2="78.45" xlink:href="#linear-gradient"/><linearGradient id="linear-gradient-9" x1="1" y1="70.54" x2="28.45" y2="70.54" xlink:href="#linear-gradient"/><linearGradient id="linear-gradient-10" x1="1" y1="62.63" x2="28.45" y2="62.63" xlink:href="#linear-gradient"/><linearGradient id="linear-gradient-11" x1="1" y1="54.7" x2="28.45" y2="54.7" xlink:href="#linear-gradient"/><linearGradient id="linear-gradient-12" x1="1" y1="46.79" x2="28.45" y2="46.79" xlink:href="#linear-gradient"/><linearGradient id="linear-gradient-13" x1="85.62" y1="104.13" x2="123.8" y2="104.13" xlink:href="#linear-gradient"/><linearGradient id="linear-gradient-14" x1="85.63" y1="96.21" x2="123.8" y2="96.21" xlink:href="#linear-gradient"/><linearGradient id="linear-gradient-15" x1="85.63" y1="88.3" x2="123.8" y2="88.3" xlink:href="#linear-gradient"/><linearGradient id="linear-gradient-16" x1="85.63" y1="80.38" x2="123.8" y2="80.38" xlink:href="#linear-gradient"/><linearGradient id="linear-gradient-17" x1="85.63" y1="72.46" x2="123.8" y2="72.46" xlink:href="#linear-gradient"/><linearGradient id="linear-gradient-18" x1="57.9" y1="40.63" x2="96.07" y2="40.63" xlink:href="#linear-gradient"/><linearGradient id="linear-gradient-19" x1="57.9" y1="32.71" x2="96.07" y2="32.71" xlink:href="#linear-gradient"/><linearGradient id="linear-gradient-20" x1="57.9" y1="24.79" x2="96.07" y2="24.79" xlink:href="#linear-gradient"/><linearGradient id="linear-gradient-21" x1="57.9" y1="48.54" x2="96.07" y2="48.54" xlink:href="#linear-gradient"/><linearGradient id="linear-gradient-22" x1="1" y1="30.89" x2="39.18" y2="30.89" xlink:href="#linear-gradient"/><linearGradient id="linear-gradient-23" x1="1" y1="22.97" x2="39.18" y2="22.97" xlink:href="#linear-gradient"/></defs><title>вклады главная</title><g id="Слой_2" data-name="Слой 2"><g id="Layer_2" data-name="Layer 2"><path class="cls-1" d="M86.08,103.34a.5.5,0,0,0,0-.1v0a6.34,6.34,0,0,1-.43-2.31V95.13a.48.48,0,0,1,0-.13l0,0a.48.48,0,0,0,0-.09l0-.07-.08-.07-.07,0-.1,0-.08,0H85a32.23,32.23,0,0,1-9,1c-1,0-2-.1-3.05-.23h-.2a.51.51,0,0,0-.41.43.49.49,0,0,0,.08.31,19.27,19.27,0,0,1,.16,2.45s0,0,0,0a.49.49,0,0,0,0,.13l0,.06a.48.48,0,0,0,.07.1l.06.06.05,0,3.05,1.76a25.61,25.61,0,0,0,9.66,3.05h.06a.5.5,0,0,0,.18,0l.06,0,.1-.06.06-.07.05-.08a.49.49,0,0,0,0-.09.48.48,0,0,0,0-.07s0,0,0,0A.49.49,0,0,0,86.08,103.34Z"/><path class="cls-1" d="M131.88,100l-7.33-4.23h0l-.09,0-.11,0h-.08l-.1,0-.08,0-.08.05-.07.08,0,0v0a.78.78,0,0,0-.05.19s0,0,0,0v4.7c0,2.84-2,5.53-5.53,7.58-7.52,4.34-19.73,4.37-27.2,0a.49.49,0,0,0-.5,0l-.05,0a.5.5,0,0,0,.05.83l13,7.52a28.65,28.65,0,0,0,14,3.34,29,29,0,0,0,14.18-3.39c3.89-2.24,6-5.25,6-8.47S135.71,102.19,131.88,100Z"/><path class="cls-1" d="M24.62,93.65a.5.5,0,0,0-.33-.06,28.2,28.2,0,0,1-17.92-3,.5.5,0,1,0-.5.87L18.79,98.9l.07.06a25.72,25.72,0,0,0,12.22,3.33h0a.5.5,0,0,0,.5-.5V98.08a.5.5,0,0,0-.24-.43Z"/><path class="cls-1" d="M84.3,114.51,71.58,107a.5.5,0,0,0-.56,0l-2,1.49s-3.74,2.14-4.81,2.78a9.6,9.6,0,0,1-6.17,1.37.49.49,0,0,0-.32.06l-4.38,2.53-8.8-5.08-.06-4a.5.5,0,0,0-.75-.43l-3.71,2.11a.5.5,0,0,0,0,.87l13,7.53.05,0L66.56,124a10.63,10.63,0,0,0,10.6,0l7.1-4.1a3.12,3.12,0,0,0,0-5.38Z"/><path class="cls-2" d="M53.9,87.39,38.41,78.45a.5.5,0,0,0-.75.43v12.7a.5.5,0,0,0,.25.43L53.4,101a5.16,5.16,0,0,0,2.55.77,3.14,3.14,0,0,0,1.59-.41,4,4,0,0,0,1.74-3.72v-.92A11.88,11.88,0,0,0,53.9,87.39ZM57,100.45a3.16,3.16,0,0,1-3.14-.36L39.2,91.61l4.1-2.37,15,8.64A3,3,0,0,1,57,100.45Zm1.24-3.72-14.54-8.4V82.68l9.66,5.58a10.78,10.78,0,0,1,4.88,8.42Z"/><path class="cls-2" d="M37.91,68.75,52.21,77a4.69,4.69,0,0,0,2.31.7A2.86,2.86,0,0,0,56,77.33a3.67,3.67,0,0,0,1.59-3.38v-.52a.49.49,0,0,0,0-.12v-.23a10.72,10.72,0,0,0-4.86-8.38l-9.17-5.29a.49.49,0,0,0-.14-.08l-5-2.88a.5.5,0,0,0-.75.43V68.31A.5.5,0,0,0,37.91,68.75Zm17.56,7.71a2.77,2.77,0,0,1-2.76-.32L39.28,68.39,43.39,66l13.18,7.61v.32A2.74,2.74,0,0,1,55.47,76.46Zm1-4L43.74,65.07V60.67l8.47,4.89A9.71,9.71,0,0,1,56.51,72.44Z"/><path class="cls-2" d="M73.4,96.49a34,34,0,0,0,3.44.19,33.22,33.22,0,0,0,7.79-.92v5.15c0,3.21,2.09,6.2,5.94,8.42a28.66,28.66,0,0,0,14,3.34,29,29,0,0,0,14.18-3.39c3.85-2.22,6-5.19,6-8.38V61.69a.48.48,0,0,0,0-.13c0-.1,0-.2,0-.3a.49.49,0,0,0-.06-.23c-.09-3.12-2.17-6-5.93-8.19-5.85-3.38-14.5-4.19-21.74-2.45V13.59s0,0,0-.05c0-3.19-2.11-6.17-5.94-8.38-7.75-4.47-20.4-4.45-28.2,0-3.84,2.22-6,5.18-6,8.35a.47.47,0,0,0,0,0v31.1l-7.49-4.32a.49.49,0,0,0-.33-.05.48.48,0,0,0-.23.06l-3,1.71V38.64a.5.5,0,0,0-.25-.43l-5.46-3.15V11.77s0,0,0,0c0-3.19-2.11-6.17-5.94-8.38-7.75-4.47-20.4-4.45-28.2,0-3.84,2.22-6,5.18-6,8.35a.47.47,0,0,0,0,0V83.09c0,3.21,2.09,6.2,5.94,8.42a28.54,28.54,0,0,0,14,3.36,34.48,34.48,0,0,0,4.17-.26l0,0,6.47,3.73v4.57a.5.5,0,0,0,.25.43l9.21,5.32h0a.5.5,0,0,0,.24.06h0a.5.5,0,0,0,.24-.07h0l3-1.87v3.63a.5.5,0,0,0,.25.43L53,116.18h0a.5.5,0,0,0,.23.06h0a.49.49,0,0,0,.25-.07l4.66-2.69a.48.48,0,0,0,.11-.1,8.45,8.45,0,0,0,5.57-.77h.05l.08,0,.05,0,.07-.05L68.27,110a7.27,7.27,0,0,0,1.87-1.13l.24-.14a.49.49,0,0,0,.19-.24c1.91-1.85,3-4.81,3-8.53V99m31.22-48.56a27.64,27.64,0,0,1,13.52,3.22c3.51,2,5.44,4.7,5.44,7.52s-2,5.55-5.53,7.61a23.58,23.58,0,0,1-6.37,2.45c-6.95,1.62-15.19.83-20.79-2.4-3.53-2-5.46-4.72-5.44-7.55a.48.48,0,0,0,0-.14c.08-2.78,2-5.41,5.51-7.43A28,28,0,0,1,104.79,50.48ZM29,36.07l1.56.9v4.39l-5.36-3.1Zm7.51-2,2.66,1.53a.49.49,0,0,0,.47.37l.12,0,4.53,2.61L40.22,41l-8-4.62Zm12.59,7.27,8.39,4.84-4.1,2.37L45,43.75ZM69,64.06l.39.09v.78C69.26,64.64,69.13,64.35,69,64.06Zm-5.55-8.22A25.8,25.8,0,0,0,59.08,52a.47.47,0,0,0,0-.08.49.49,0,0,0-.18-.17V50.47a14.18,14.18,0,0,0,4,3.27c.19.11.4.21.6.31Zm0-49.76A28,28,0,0,1,77.11,2.8,27.64,27.64,0,0,1,90.63,6c3.51,2,5.44,4.7,5.44,7.52s-2,5.55-5.53,7.61c-7.52,4.34-19.72,4.37-27.2,0-3.51-2-5.44-4.7-5.44-7.52S59.86,8.14,63.43,6.08ZM43.58,46.33v2.53L41.39,47.6ZM6.53,4.26A28,28,0,0,1,20.21,1,27.65,27.65,0,0,1,33.73,4.21c3.51,2,5.44,4.7,5.44,7.52s-2,5.55-5.53,7.61c-7.52,4.34-19.72,4.37-27.2.05C2.93,17.36,1,14.69,1,11.87S3,6.32,6.53,4.26ZM28.45,81.8V85.4l-3.12-1.8ZM53.9,110.66l-.35-.2a.5.5,0,0,0-.75.43v4l-8.21-4.74v-4.57a.5.5,0,0,0-.25-.43L40.56,103a.5.5,0,0,0-.75.43v4l-8.21-4.74V98.08a.5.5,0,0,0-.25-.43l-6.47-3.73V84.5L28.7,86.7a.5.5,0,0,0,.75-.43V51.56a.5.5,0,0,0-.25-.43l-4.32-2.49V39.22l6,3.45a.5.5,0,0,0,.75-.43v-5l.06-.06,8.16,4.71v5.66a.5.5,0,0,0,.25.43l3.77,2.18a.5.5,0,0,0,.75-.43V44.65l8.21,4.74v5.71a.5.5,0,0,0,.23.42c7.15,4.62,12.75,14.68,12.75,22.88v.87c0,3.38-.95,6-2.74,7.64a.5.5,0,0,0-.09.63A29.12,29.12,0,0,1,67.49,102v.92c0,4.14-1.37,7.23-3.85,8.7l-.12.07C61,113.14,57.56,112.78,53.9,110.66Z"/><path class="cls-3" d="M84.63,87.84v6.9a33.11,33.11,0,0,1-11.36.74,29.62,29.62,0,0,0-2.19-7.22,33.43,33.43,0,0,0,13.55-.42Z"/><path class="cls-4" d="M84.63,79.93v6.88a32.87,32.87,0,0,1-14.07.34c-.45-.92-.93-1.85-1.47-2.76a9.07,9.07,0,0,0,2.23-4,33.11,33.11,0,0,0,13.31-.45Z"/><path class="cls-5" d="M84.63,72V78.9a32.62,32.62,0,0,1-13.07.51,16,16,0,0,0,.3-3.11v-.87a21.67,21.67,0,0,0-.23-3,32.74,32.74,0,0,0,5.41.46A32.12,32.12,0,0,0,84.63,72Z"/><path class="cls-6" d="M84.63,64.09V71a31.59,31.59,0,0,1-13.18.45,27.36,27.36,0,0,0-1.19-4.35.49.49,0,0,0,.13-.33V64.38a33,33,0,0,0,14.24-.29Z"/><path class="cls-7" d="M69.39,58.84a.5.5,0,0,0,1,0V56.45a33.79,33.79,0,0,0,6.47.63,31.76,31.76,0,0,0,10.5-1.72,8.5,8.5,0,0,0-2.78,6,4.36,4.36,0,0,0,0,.52v1.18a32.2,32.2,0,0,1-16.14-.15h-.08a33.69,33.69,0,0,0-4-6,.61.61,0,0,0,0-.13V54.56q.61.28,1.26.54v2.29a.5.5,0,0,0,1,0V55.46a25.89,25.89,0,0,0,2.68.78Z"/><path class="cls-8" d="M6.55,88.36a.5.5,0,0,0,.5.5.51.51,0,0,0,.5-.5v-4c.41.2.83.37,1.26.55v2.28a.5.5,0,0,0,.5.5.5.5,0,0,0,.5-.5V85.32c.87.3,1.76.56,2.68.78v2.59a.5.5,0,0,0,1,0V86.31a33.09,33.09,0,0,0,6.44.64,34.89,34.89,0,0,0,3.95-.24v6.91c-6.37.76-12.86-.34-17.43-3C2.92,88.61,1,85.92,1,83.09v-4.2a12.82,12.82,0,0,0,5,4.7c.19.11.4.21.6.31Z"/><path class="cls-9" d="M6.55,40.85a.5.5,0,0,0,.5.5.5.5,0,0,0,.5-.5V36.91q.62.28,1.26.54v2.29a.51.51,0,0,0,.5.5.5.5,0,0,0,.5-.5V37.81c.87.3,1.76.57,2.68.79v2.58a.5.5,0,0,0,1,0V38.8a32.36,32.36,0,0,0,6.45.64,34.72,34.72,0,0,0,3.94-.24v6.91c-6.37.76-12.86-.33-17.43-3C2.92,41.1,1,38.42,1,35.59V31.38a12.74,12.74,0,0,0,5,4.7l.6.32Z"/><path class="cls-10" d="M6.55,80.44a.5.5,0,0,0,.5.5.5.5,0,0,0,.5-.5V76.49q.62.28,1.26.54v2.3a.51.51,0,0,0,.5.5.5.5,0,0,0,.5-.5V77.39c.87.3,1.76.56,2.68.78v2.6a.5.5,0,0,0,1,0v-2.4A33.4,33.4,0,0,0,20,79a32.26,32.26,0,0,0,8.29-1,.31.31,0,0,0,.14-.07v2.78a.49.49,0,0,0-.16,0L24.2,83.09a.53.53,0,0,0-.19.23.51.51,0,0,0-.13.31V85.7c-6.37.76-12.86-.34-17.43-3C2.92,80.69,1,78,1,75.17V71a12.82,12.82,0,0,0,5,4.7c.19.11.4.21.6.31Z"/><path class="cls-11" d="M6.55,72.52A.5.5,0,0,0,7,73a.5.5,0,0,0,.5-.5V68.58c.41.19.83.37,1.26.53v2.3a.51.51,0,0,0,.5.5.5.5,0,0,0,.5-.5V69.47c.87.3,1.76.57,2.68.79v2.59a.5.5,0,0,0,1,0V70.46A33.37,33.37,0,0,0,20,71.1,32.56,32.56,0,0,0,28.45,70v7.05a.52.52,0,0,0-.39-.07c-7.3,1.94-16,1.06-21.61-2.19C2.92,72.77,1,70.09,1,67.26V63.05a12.74,12.74,0,0,0,5,4.7l.6.32Z"/><path class="cls-12" d="M6.55,64.6a.5.5,0,0,0,.5.5.5.5,0,0,0,.5-.5V60.66q.62.28,1.26.54v2.29a.5.5,0,0,0,.5.5.5.5,0,0,0,.5-.5V61.55c.87.3,1.76.57,2.68.79v2.59a.5.5,0,0,0,1,0V62.54a33.4,33.4,0,0,0,6.53.64,32.7,32.7,0,0,0,8.34-1l.09,0V69a.46.46,0,0,0-.2,0c-7.34,2-16.1,1.14-21.8-2.15C2.92,64.85,1,62.17,1,59.34v-4.2a12.82,12.82,0,0,0,5,4.7c.19.11.4.2.6.31Z"/><path class="cls-13" d="M6.55,56.69a.5.5,0,0,0,.5.5.51.51,0,0,0,.5-.5v-4c.41.2.83.37,1.26.54v2.29a.5.5,0,0,0,.5.5.5.5,0,0,0,.5-.5V53.64c.87.3,1.76.57,2.68.79V57a.5.5,0,0,0,1,0V54.63a33.07,33.07,0,0,0,6.49.65,32.81,32.81,0,0,0,8.47-1.11v7a.52.52,0,0,0-.35,0c-7.3,1.95-16,1.07-21.65-2.19C2.92,56.94,1,54.25,1,51.42v-4.2a12.82,12.82,0,0,0,5,4.7c.19.11.4.21.6.31Z"/><path class="cls-14" d="M7.55,48.77V44.83q.62.28,1.26.54v2.29a.51.51,0,0,0,.5.5.5.5,0,0,0,.5-.5V45.73c.87.3,1.76.57,2.68.79V49.1a.5.5,0,0,0,1,0V46.72a33.09,33.09,0,0,0,6.44.64,34.89,34.89,0,0,0,3.95-.24v1.8a.5.5,0,0,0,.25.43l4.32,2.5v1.29c-7.4,2.09-16.21,1.26-22-2.09C2.92,49,1,46.34,1,43.5V39.3a12.82,12.82,0,0,0,5,4.7l.6.32v4.45a.5.5,0,0,0,.5.5A.5.5,0,0,0,7.55,48.77Z"/><path class="cls-15" d="M72.57,99V100c0,3.63-1,6.42-2.93,8l-1.84,1.11a4.57,4.57,0,0,1-.74.24,13.46,13.46,0,0,0,1.44-6.43V102a29.47,29.47,0,0,0-4.41-14.51l4.21-2.43A28.83,28.83,0,0,1,72.57,99Z"/><path class="cls-15" d="M68.12,83.94a.41.41,0,0,0-.1.13L65.3,85.64a12.78,12.78,0,0,0,1.48-6.38V78.4c0-8.21-5.4-18.18-12.42-23.18l4.14-2.39c7,4.74,12.36,14.55,12.36,22.6v.87a14.48,14.48,0,0,1-.39,3.42h0A8.11,8.11,0,0,1,68.12,83.94Z"/><polygon class="cls-15" points="57.87 47.17 57.87 52.04 53.8 54.39 53.8 49.53 57.87 47.17"/><path class="cls-15" d="M56.94,113.07l-3.14,1.81v-3.13A15.62,15.62,0,0,0,56.94,113.07Z"/><path class="cls-15" d="M44.07,43.15a.48.48,0,0,0-.17.18l-.06,0a.48.48,0,0,0-.25.43v1.39l-2.78,1.61v-5l4.08-2.35v3.25Z"/><polygon class="cls-15" points="43.39 105.75 40.81 107.35 40.81 104.26 43.39 105.75"/><polygon class="cls-15" points="42.74 82.1 42.74 88.41 38.66 90.76 38.66 79.75 42.74 82.1"/><polygon class="cls-15" points="42.74 60.1 42.74 65.24 38.66 67.59 38.66 57.74 42.74 60.1"/><path class="cls-15" d="M96.07,48.91v1.75c-.6.17-1.19.36-1.77.56A10.17,10.17,0,0,0,96.07,48.91Z"/><path class="cls-15" d="M39.18,31.25v3.23l-1.7-1A10.92,10.92,0,0,0,39.18,31.25Z"/><path class="cls-16" d="M91.07,108.46c-3.53-2-5.46-4.72-5.44-7.55,0,0,0,0,0,0V96.71a12.78,12.78,0,0,0,4.94,4.7c.19.11.4.21.6.31v4.46a.5.5,0,0,0,1,0v-3.95c.41.2.84.37,1.27.54v2.29a.5.5,0,0,0,.5.5.5.5,0,0,0,.5-.5v-1.93a25,25,0,0,0,2.67.78v2.6a.51.51,0,0,0,.5.5.5.5,0,0,0,.5-.5v-2.39a34,34,0,0,0,6.48.63,29,29,0,0,0,14.18-3.39,13,13,0,0,0,5-4.78v4.25c0,2.84-2,5.53-5.53,7.58C110.75,112.75,98.54,112.78,91.07,108.46Z"/><path class="cls-17" d="M91.07,100.54c-3.53-2-5.46-4.71-5.44-7.55v-4.2a12.78,12.78,0,0,0,4.94,4.7c.19.11.4.21.6.31v4.46a.5.5,0,0,0,1,0V94.32c.41.19.84.36,1.27.53v2.3a.5.5,0,0,0,.5.5.51.51,0,0,0,.5-.5V95.21a27.59,27.59,0,0,0,2.67.79v2.59a.5.5,0,0,0,.5.5.5.5,0,0,0,.5-.5V96.2a34,34,0,0,0,6.48.63,29,29,0,0,0,14.18-3.39,13,13,0,0,0,5-4.78v4.26c0,2.83-2,5.52-5.53,7.57C110.75,104.84,98.54,104.86,91.07,100.54Z"/><path class="cls-18" d="M91.17,90.34a.5.5,0,0,0,1,0V86.4c.41.19.84.37,1.27.54v2.29a.5.5,0,0,0,.5.5.51.51,0,0,0,.5-.5V87.3c.86.29,1.75.56,2.67.78v2.59a.5.5,0,0,0,.5.5.5.5,0,0,0,.5-.5V88.28a33.12,33.12,0,0,0,6.48.64,29,29,0,0,0,14.18-3.4,13.07,13.07,0,0,0,5-4.77V85c0,2.83-2,5.53-5.53,7.58-7.52,4.34-19.73,4.36-27.2.05-3.53-2-5.46-4.72-5.44-7.55V80.87a12.71,12.71,0,0,0,4.94,4.7c.19.12.4.21.6.32Z"/><path class="cls-19" d="M91.17,82.42a.5.5,0,1,0,1,0V78.48c.41.19.84.37,1.27.54v2.29a.5.5,0,0,0,.5.5.5.5,0,0,0,.5-.5V79.38a25,25,0,0,0,2.67.78v2.59a.5.5,0,0,0,.5.5.5.5,0,0,0,.5-.5V80.36a33.19,33.19,0,0,0,6.48.64,29,29,0,0,0,14.18-3.39,13.09,13.09,0,0,0,5-4.78v4.25c0,2.84-2,5.53-5.53,7.58-7.52,4.34-19.73,4.36-27.2.05-3.53-2-5.46-4.72-5.44-7.55V73a12.78,12.78,0,0,0,4.94,4.7c.19.11.4.2.6.31Z"/><path class="cls-20" d="M91.17,74.51a.5.5,0,0,0,1,0V70.59c.41.19.84.37,1.27.54v2.26a.5.5,0,0,0,.5.5.5.5,0,0,0,.5-.5V71.48a25,25,0,0,0,2.67.78v2.58a.51.51,0,0,0,.5.5.5.5,0,0,0,.5-.5V72.46a33.56,33.56,0,0,0,6.44.63,33.08,33.08,0,0,0,5.73-.49,25.61,25.61,0,0,0,8.49-2.91,13,13,0,0,0,5-4.78v4.25c0,2.84-2,5.53-5.53,7.58-7.52,4.34-19.73,4.37-27.2,0-3.53-2-5.46-4.72-5.44-7.55V65.12a12.88,12.88,0,0,0,4.9,4.63c.2.12.43.22.64.33Z"/><path class="cls-21" d="M63.34,45c-3.52-2-5.45-4.72-5.44-7.55V33.2a12.78,12.78,0,0,0,4.94,4.7c.2.12.41.21.61.32v4.45a.5.5,0,0,0,.5.5.5.5,0,0,0,.5-.5V38.73q.61.28,1.26.54v2.29a.5.5,0,0,0,1,0V39.63c.87.29,1.76.56,2.68.78V43a.5.5,0,0,0,1,0V40.61a33.8,33.8,0,0,0,6.47.64A29,29,0,0,0,91,37.85a12.93,12.93,0,0,0,5-4.77v4.25c0,2.83-2,5.52-5.53,7.58C83,49.25,70.82,49.27,63.34,45Z"/><path class="cls-22" d="M63.34,37c-3.52-2-5.45-4.72-5.44-7.55v-4.2A12.85,12.85,0,0,0,62.84,30l.61.31v4.45a.5.5,0,0,0,.5.5.5.5,0,0,0,.5-.5V30.81q.61.29,1.26.54v2.29a.5.5,0,0,0,1,0V31.71a25.89,25.89,0,0,0,2.68.78v2.59a.5.5,0,1,0,1,0V32.69a33,33,0,0,0,6.47.64A29,29,0,0,0,91,29.94a13,13,0,0,0,5-4.78v4.25c0,2.84-2,5.53-5.53,7.58C83,41.33,70.82,41.35,63.34,37Z"/><path class="cls-23" d="M63.34,29.12c-3.52-2-5.45-4.72-5.44-7.55v-4.2a12.85,12.85,0,0,0,4.94,4.7l.61.31v4.46a.5.5,0,0,0,.5.5.51.51,0,0,0,.5-.5V22.89q.61.28,1.26.54v2.29a.5.5,0,0,0,1,0V23.79a25.89,25.89,0,0,0,2.68.78v2.6a.5.5,0,0,0,1,0v-2.4a33,33,0,0,0,6.47.64A29,29,0,0,0,91,22a13,13,0,0,0,5-4.78v4.25c0,2.84-2,5.53-5.53,7.58C83,33.41,70.82,33.44,63.34,29.12Z"/><path class="cls-24" d="M63.34,52.87a12.23,12.23,0,0,1-4.37-4,.35.35,0,0,0-.1-.11V46.14a.5.5,0,0,0-.25-.44l-.72-.41V41.12a12.85,12.85,0,0,0,4.94,4.7l.61.31v4.46a.5.5,0,0,0,.5.5.5.5,0,0,0,.5-.5V46.65c.41.19.83.36,1.26.53v2.3a.5.5,0,0,0,1,0V47.54c.87.3,1.76.57,2.68.79v2.59a.5.5,0,0,0,1,0V48.53a33.79,33.79,0,0,0,6.47.63A29,29,0,0,0,91,45.77a12.88,12.88,0,0,0,5-4.78v4.26c0,2.83-2,5.52-5.53,7.57C83,57.17,70.82,57.19,63.34,52.87Z"/><path class="cls-25" d="M8.81,31.82a.5.5,0,0,0,.5.5.5.5,0,0,0,.5-.5V29.89a25.89,25.89,0,0,0,2.68.78v2.59a.5.5,0,0,0,1,0V30.87a33,33,0,0,0,6.48.64,29,29,0,0,0,14.18-3.39,13.09,13.09,0,0,0,5-4.78v4.25a7.7,7.7,0,0,1-2.67,5.46h0a.23.23,0,0,0-.11,0h0l-4.9,2.54a.55.55,0,0,0-.19.18.48.48,0,0,0-.39,0l-.07.07-1.42-.82a.48.48,0,0,0-.33,0,.42.42,0,0,0-.31,0l-4.59,2.65a.5.5,0,0,0-.24.44c-6.37.77-12.87-.33-17.44-3C2.92,33.18,1,30.5,1,27.67v-4.2a12.82,12.82,0,0,0,5,4.7c.19.11.4.2.6.31v4.45a.5.5,0,0,0,.5.5.5.5,0,0,0,.5-.5V29q.62.29,1.26.54Z"/><path class="cls-26" d="M8.81,23.9a.5.5,0,0,0,.5.5.5.5,0,0,0,.5-.5V22a25.89,25.89,0,0,0,2.68.78v2.6a.5.5,0,0,0,1,0V23a33.82,33.82,0,0,0,6.48.63A29,29,0,0,0,34.15,20.2a13.09,13.09,0,0,0,5-4.78v4.25c0,2.84-2,5.53-5.53,7.58-7.53,4.34-19.73,4.37-27.2.05C2.92,25.27,1,22.58,1,19.75v-4.2a12.82,12.82,0,0,0,5,4.7c.19.11.4.21.6.31V25a.5.5,0,0,0,.5.5.51.51,0,0,0,.5-.5V21.07q.62.28,1.26.54Z"/></g></g></svg>