<svg xmlns="http://www.w3.org/2000/svg" xmlns:xlink="http://www.w3.org/1999/xlink" viewBox="0 0 128.69 154.55"><defs><style>.cls-1{fill:#ededf4;}.cls-2{fill:#03aee8;}.cls-3{fill:url(#linear-gradient);}.cls-4{fill:url(#linear-gradient-2);}.cls-5{fill:url(#linear-gradient-3);}.cls-6{fill:url(#linear-gradient-4);}.cls-7{fill:url(#linear-gradient-5);}.cls-8{fill:url(#linear-gradient-6);}.cls-9{fill:url(#linear-gradient-7);}.cls-10{fill:url(#linear-gradient-8);}.cls-11{fill:url(#linear-gradient-9);}.cls-12{fill:#abdbe8;}</style><linearGradient id="linear-gradient" x1="104.86" y1="89.19" x2="117.01" y2="89.19" gradientUnits="userSpaceOnUse"><stop offset="0" stop-color="#fff"/><stop offset="1" stop-color="#cde8f7"/></linearGradient><linearGradient id="linear-gradient-2" x1="27.92" y1="23.64" x2="47.7" y2="23.64" gradientUnits="userSpaceOnUse"><stop offset="0.27" stop-color="#fff"/><stop offset="0.82" stop-color="#f2f9fc"/><stop offset="1" stop-color="#cde8f7"/></linearGradient><linearGradient id="linear-gradient-3" x1="34.82" y1="60.81" x2="86.26" y2="60.81" gradientUnits="userSpaceOnUse"><stop offset="0.24" stop-color="#fff"/><stop offset="1" stop-color="#a6d7e8"/></linearGradient><linearGradient id="linear-gradient-4" x1="1" y1="83.8" x2="64.52" y2="83.8" gradientUnits="userSpaceOnUse"><stop offset="0.29" stop-color="#fff"/><stop offset="1" stop-color="#cde8f7"/></linearGradient><linearGradient id="linear-gradient-5" x1="65.52" y1="109.15" x2="93.81" y2="109.15" gradientUnits="userSpaceOnUse"><stop offset="0" stop-color="#fff"/><stop offset="0.9" stop-color="#cde8f7"/></linearGradient><linearGradient id="linear-gradient-6" x1="53.44" y1="80.32" x2="93.81" y2="80.32" xlink:href="#linear-gradient-5"/><linearGradient id="linear-gradient-7" x1="51.62" y1="76.48" x2="103.86" y2="76.48" xlink:href="#linear-gradient-4"/><linearGradient id="linear-gradient-8" x1="5.54" y1="73.41" x2="98.52" y2="73.41" xlink:href="#linear-gradient-4"/><linearGradient id="linear-gradient-9" x1="60.08" y1="16.81" x2="79.86" y2="16.81" xlink:href="#linear-gradient-2"/></defs><title>кошелек главная</title><g id="Слой_2" data-name="Слой 2"><g id="Layer_2" data-name="Layer 2"><path class="cls-1" d="M127.19,122.87l-22.58-9.8a.51.51,0,0,0-.22,0h0a.5.5,0,0,0-.5.5v10.68l-4.65-1.91h-.08l-.11,0h0l-.14,0-.1,0a.47.47,0,0,0-.26.44v.91a1.11,1.11,0,0,1-.62.73,4.29,4.29,0,0,1-3.4.16h-.06l-.08,0h-.13l-.08,0-.09,0-.08.05,0,.05a.48.48,0,0,0-.08.11h0s0,0,0,0a.46.46,0,0,0,0,.11,1.1,1.1,0,0,1-.62.74,4.29,4.29,0,0,1-3.4.16L65.21,115.78a.48.48,0,0,0-.32,0,.49.49,0,0,0-.37.47v31.64a.47.47,0,0,0,0,.06.49.49,0,0,0,0,.1l0,.08.05.08.08.07,0,0,9.3,5.2a8.19,8.19,0,0,0,8.05-.06l45.32-26.16a2.48,2.48,0,0,0-.25-4.43Z"/><path class="cls-2" d="M111.23,82.09a8.48,8.48,0,0,0-.94-.47h0l-5.42-2.24V49.13a.5.5,0,0,0-.31-.46l-21.76-9-29-12c0-.34,0-.69,0-1.06,0-6.73-4.77-15-10.64-18.35-2.93-1.69-5.72-2-7.85-.75l-5,2.89,0,0-.12.06c-1.9,1.1-3,3.26-3.23,6.13L15.84,12.09h0a15,15,0,0,0-5.41-1C4.68,11.07,0,14.15,0,17.94v76a5.35,5.35,0,0,0,1.85,3.76l.08,0L64.7,148.28a.5.5,0,0,0,.31.11.51.51,0,0,0,.22,0,.5.5,0,0,0,.28-.45V117l23.89,9.84h0a5.16,5.16,0,0,0,1.9.34,4.85,4.85,0,0,0,2.37-.57,2.28,2.28,0,0,0,.93-1,5.35,5.35,0,0,0,1.4.2,4.85,4.85,0,0,0,2.37-.57,2,2,0,0,0,1.12-1.51s0,0,0,0v-.24l4.66,1.91a.52.52,0,0,0,.19,0,.5.5,0,0,0,.5-.5V95.62l6.74,2.78h0l.37.15H112a5.59,5.59,0,0,0,1.86.35,3.82,3.82,0,0,0,2.13-.61,5.14,5.14,0,0,0,2-4.51A15,15,0,0,0,111.23,82.09ZM35.84,8.44c1.8-1,4.23-.76,6.85.75,5.59,3.23,10.14,11.07,10.14,17.48,0,3-1,5.21-2.79,6.24l-2.31,1.3a8.29,8.29,0,0,0,.65-1.79l1.56-.9a.5.5,0,0,0-.5-.87l-.83.48a12.94,12.94,0,0,0,.09-1.5c0-.14,0-.29,0-.43l2.82-1.63a.5.5,0,0,0-.5-.87l-2.39,1.38a18.27,18.27,0,0,0-.36-2.19l2.24-1.29a.5.5,0,1,0-.5-.87l-2,1.15c-1.53-5.48-5.4-11-9.93-13.6a10.22,10.22,0,0,0-4.59-1.48Zm62,44.62h0c.41.23.64.53.64.8s-.23.56-.62.79a4.28,4.28,0,0,1-3.39.17h0l-47-19.34,3-1.69.19-.13ZM2.49,20.94a11.56,11.56,0,0,1,7.94-2.75,14.23,14.23,0,0,1,5,.95l12.4,5.1a.5.5,0,0,0,.19,0,.49.49,0,0,0,.16,0,25.53,25.53,0,0,0,2,4.07L14,21.64a9.83,9.83,0,0,0-9.22,1.1Zm7.94-8.87a14.22,14.22,0,0,1,5,.95l11.46,4.72a18.43,18.43,0,0,0,.93,5.41l-12-4.94h0a15,15,0,0,0-5.41-1,12.61,12.61,0,0,0-8.61,3A4.26,4.26,0,0,1,1,17.94C1,14.71,5.23,12.07,10.43,12.07Zm79.37,89h0L65.52,91V87.9L93.17,99.28h0c.4.23.63.52.64.8h0c0,.27-.23.55-.62.78A4.29,4.29,0,0,1,89.79,101Zm3.37-26.79h0c.41.23.64.53.64.8s-.23.56-.62.79a4.28,4.28,0,0,1-3.39.17h0l-2.53-1V71.82ZM32.36,45a.5.5,0,0,0-.17,0L18,33.45a.69.69,0,0,1,.27-.4.71.71,0,0,1,.67-.07L81.8,58.88a7.13,7.13,0,0,1,4.43,6.62v1.66Z"/><path class="cls-3" d="M117,93.8a4.2,4.2,0,0,1-1.52,3.68,3.66,3.66,0,0,1-3.49,0h0l-7.13-3V80.47l5,2.08a7.07,7.07,0,0,1,.83.41A13.89,13.89,0,0,1,117,93.8Z"/><path class="cls-4" d="M47.7,29.64c0,2.69-.81,4.74-2.28,5.88l-1.17.66c-1.72.64-3.88.28-6.19-1C32.47,31.9,27.92,24.06,27.92,17.64c0-3,1-5.19,2.77-6.22a4.84,4.84,0,0,1,2.46-.63,9.06,9.06,0,0,1,4.41,1.36C43.15,15.38,47.7,23.22,47.7,29.64Z"/><polygon class="cls-5" points="86.24 68.25 86.26 74.56 50.71 59.92 34.82 47.07 86.24 68.25"/><path class="cls-6" d="M64.52,72.36v74.48l-62-50,0,0A4.38,4.38,0,0,1,1,93.9V20.77a4.55,4.55,0,0,0,.85.94Z"/><path class="cls-7" d="M93.81,101.65V125a1.11,1.11,0,0,1-.62.74,4.3,4.3,0,0,1-3.4.16l-24.26-10V92.13L89.4,102h0a5.21,5.21,0,0,0,1.9.34,4.8,4.8,0,0,0,2.37-.57A1,1,0,0,0,93.81,101.65Z"/><path class="cls-8" d="M93.81,76.62v21.9l-.14-.1h0l0,0L65.52,86.82V72.12a.51.51,0,0,0-.19-.39L53.44,62.12l36,14.81a0,0,0,0,1,0,0,5.21,5.21,0,0,0,1.9.34,4.8,4.8,0,0,0,2.37-.57A1,1,0,0,0,93.81,76.62Z"/><path class="cls-9" d="M103.86,49.47v74.74l-4.35-1.79V54.11s0-.07,0-.1,0-.1,0-.14a2,2,0,0,0-1.14-1.67h0l0,0L51.62,32.94a7.38,7.38,0,0,0,2-4.18L82.41,40.62Z"/><path class="cls-10" d="M98.52,55.43v68.26a1.08,1.08,0,0,1-.62.73,4.22,4.22,0,0,1-3.09.25V100.1h0s0,0,0,0V75.3s0-.07,0-.1,0-.09,0-.14a2,2,0,0,0-1.14-1.67h0l0,0-6.35-2.61,0-5.24A8.12,8.12,0,0,0,82.18,58L19.29,32.06a1.71,1.71,0,0,0-1.61.16,1.8,1.8,0,0,0-.53.57L5.54,23.4a9,9,0,0,1,8-.83l17.56,7.2A20.62,20.62,0,0,0,37.56,36a9.94,9.94,0,0,0,4.91,1.5,5.85,5.85,0,0,0,3-.76,4.3,4.3,0,0,0,.51-.36l.48-.27L94.11,55.74h0a5.21,5.21,0,0,0,1.9.34,4.8,4.8,0,0,0,2.37-.57Z"/><path class="cls-2" d="M69.72,29.16a10,10,0,0,0,4.91,1.5,5.83,5.83,0,0,0,3-.76,5.5,5.5,0,0,0,.51-.35L82.69,27C84.81,25.74,86,23.22,86,19.85c0-6.73-4.77-15-10.64-18.35C72.41-.2,69.62-.46,67.5.75l-5,2.89,0,0-.12.06c-2.11,1.22-3.27,3.74-3.27,7.09C59.08,17.55,63.85,25.78,69.72,29.16ZM68,1.62c1.8-1,4.23-.76,6.85.75C80.43,5.59,85,13.43,85,19.85c0,3-1,5.21-2.79,6.24l-2.31,1.3a8.29,8.29,0,0,0,.65-1.79l1.56-.9a.5.5,0,0,0-.5-.87l-.82.48a12.93,12.93,0,0,0,.09-1.5c0-.14,0-.29,0-.43l2.82-1.63a.5.5,0,0,0-.5-.87l-2.39,1.38a18.28,18.28,0,0,0-.36-2.19l2.24-1.29a.5.5,0,0,0-.5-.87l-2,1.15c-1.53-5.48-5.4-11-9.93-13.6A10.22,10.22,0,0,0,65.63,3Z"/><path class="cls-11" d="M79.86,22.81c0,2.69-.81,4.75-2.28,5.88l-1.18.67c-1.71.63-3.88.27-6.18-1.06-5.59-3.23-10.14-11.07-10.14-17.48,0-3,1-5.2,2.77-6.23A4.84,4.84,0,0,1,65.31,4a9,9,0,0,1,4.41,1.37C75.31,8.55,79.86,16.4,79.86,22.81Z"/><path class="cls-2" d="M58.23,109.65a3,3,0,0,0,1.46.44,1.88,1.88,0,0,0,1-.25,2.35,2.35,0,0,0,1-2.16,6.41,6.41,0,0,0-2.95-5.08,2.13,2.13,0,0,0-3.45,2A6.41,6.41,0,0,0,58.23,109.65Zm-1.41-6.38a.9.9,0,0,1,.45-.11,2,2,0,0,1,1,.3,5.48,5.48,0,0,1,2.45,4.22,1.42,1.42,0,0,1-.53,1.3,1.46,1.46,0,0,1-1.41-.19,5.48,5.48,0,0,1-2.45-4.22A1.42,1.42,0,0,1,56.82,103.27Z"/><path class="cls-2" d="M28.59,103.32a.5.5,0,0,0,.42.35h.06a.5.5,0,0,0,.43-.24L46.11,76.08a.5.5,0,0,0-.09-.63L38.8,69a.5.5,0,0,0-.32-.13l-10.16-.29a.49.49,0,0,0-.36.14.5.5,0,0,0-.16.35l-.05,2.3a.5.5,0,0,0,.16.38l2,1.91a.52.52,0,0,0,.13.09l4.86,2.24-5.77,9.61L22.66,63.25a.5.5,0,0,0-.14-.23l-7.28-6.69a.5.5,0,0,0-.82.51Z"/><path class="cls-12" d="M45,75.92,29.23,102,24.78,87.37,15.92,58.31l5.82,5.35,6.8,23.28a.48.48,0,0,0,.41.35.5.5,0,0,0,.5-.24L36.09,76a.49.49,0,0,0,.05-.41.5.5,0,0,0-.27-.3l-5.29-2.45-1.82-1.7,0-1.57,9.47.27Z"/></g></g></svg>