<svg xmlns="http://www.w3.org/2000/svg" viewBox="0 0 50 50"><defs><style>.cls-1{fill:none;stroke:#000000;stroke-miterlimit:10;stroke-width:2px;}.cls-2{fill:#fff;}</style></defs><title>биткойн соцсеть</title><g id="Слой_2" data-name="Слой 2"><g id="Слой_1-2" data-name="Слой 1"><path class="cls-2" d="M36,22c.48-3.25-2-5-5.38-6.16l1.09-4.41L29,10.72,27.94,15c-.7-.18-1.43-.34-2.15-.5l1.08-4.31-2.68-.67-1.1,4.41-1.71-.4v0l-3.7-.92L17,15.45s1.95.45,1.95.49a1.43,1.43,0,0,1,1.25,1.56l-1.25,5a1.25,1.25,0,0,1,.27.09l-.28-.08-1.75,7a1,1,0,0,1-1.23.63s-2-.48-2-.48l-1.33,3.07,3.49.86,1.91.5L16.94,38.6l2.68.67,1.1-4.41q1.09.3,2.13.55l-1.09,4.39,2.68.66L25.55,36c4.58.86,8,.52,9.46-3.62,1.17-3.33-.06-5.25-2.47-6.5A4.29,4.29,0,0,0,36,22Zm-6.13,8.59c-.82,3.33-6.43,1.53-8.25,1.08l1.47-5.9C24.88,26.19,30.71,27.08,29.84,30.56Zm.83-8.64c-.76,3-5.42,1.49-6.94,1.12l1.33-5.36C26.59,18.06,31.46,18.76,30.67,21.92Z"/></g></g></svg>