<svg xmlns="http://www.w3.org/2000/svg" viewBox="0 0 50 50"><defs><style>.cls-1{fill:none;stroke:#a7a7a7;stroke-miterlimit:10;stroke-width:2px;}.cls-2{fill:#a7a7a7;}</style></defs><title>Фб</title><g id="Слой_2" data-name="Слой 2"><g id="Слой_1-2" data-name="Слой 1"><path class="cls-1" d="M25,49h0A24,24,0,0,0,49,25h0A24,24,0,0,0,25,1h0A24,24,0,0,0,1,25H1A24,24,0,0,0,25,49Z"/><path class="cls-2" d="M27.26,40.23V26.93h4.46l.67-5.18H27.26V18.44c0-1.5.42-2.52,2.57-2.52h2.75V11.27a36.82,36.82,0,0,0-4-.21c-4,0-6.67,2.42-6.67,6.85v3.82H17.43v5.18H21.9v13.3Z"/></g></g></svg>