<svg xmlns="http://www.w3.org/2000/svg" xmlns:xlink="http://www.w3.org/1999/xlink" viewBox="0 0 420.58 199.74"><defs><style>.cls-1{fill:url(#Безымянный_градиент_1240);}.cls-2{fill:url(#Безымянный_градиент_1240-2);}.cls-3{fill:url(#Безымянный_градиент_1240-3);}.cls-4{fill:url(#Безымянный_градиент_1240-4);}.cls-5{fill:url(#Безымянный_градиент_1240-5);}.cls-6{fill:none;stroke:#000;stroke-miterlimit:10;stroke-width:0.5px;}.cls-7{fill:url(#Безымянный_градиент_746);}.cls-8{fill:url(#Безымянный_градиент_615);}.cls-9{fill:url(#Безымянный_градиент_804);}.cls-10{fill:url(#Безымянный_градиент_795);}</style><linearGradient id="Безымянный_градиент_1240" x1="217.51" y1="194.6" x2="211.09" y2="145.82" gradientUnits="userSpaceOnUse"><stop offset="0" stop-color="#6d8dcb"/><stop offset="0.3" stop-color="#7091cf"/><stop offset="0.61" stop-color="#7a9dda"/><stop offset="0.92" stop-color="#89b2ec"/><stop offset="1" stop-color="#8eb8f2"/></linearGradient><linearGradient id="Безымянный_градиент_1240-2" x1="253.89" y1="188.59" x2="247.7" y2="141.59" xlink:href="#Безымянный_градиент_1240"/><linearGradient id="Безымянный_градиент_1240-3" x1="295.28" y1="183.12" x2="289.1" y2="136.12" xlink:href="#Безымянный_градиент_1240"/><linearGradient id="Безымянный_градиент_1240-4" x1="343.62" y1="176.74" x2="337.44" y2="129.73" xlink:href="#Безымянный_градиент_1240"/><linearGradient id="Безымянный_градиент_1240-5" x1="402.15" y1="169.01" x2="395.96" y2="122.01" xlink:href="#Безымянный_градиент_1240"/><linearGradient id="Безымянный_градиент_746" x1="93.06" y1="46.35" x2="142.7" y2="21.38" gradientUnits="userSpaceOnUse"><stop offset="0" stop-color="#6689cc"/><stop offset="1" stop-color="#82a9e2"/></linearGradient><linearGradient id="Безымянный_градиент_615" x1="28.95" y1="-105.28" x2="-42.38" y2="-74.34" gradientTransform="translate(130.22 136.53) rotate(2.14)" gradientUnits="userSpaceOnUse"><stop offset="0" stop-color="#6e9be2"/><stop offset="0.16" stop-color="#7ca6e7"/><stop offset="0.72" stop-color="#a7c9f7"/><stop offset="1" stop-color="#b8d7fd"/></linearGradient><linearGradient id="Безымянный_градиент_804" x1="95.02" y1="179.86" x2="22.49" y2="34.81" gradientUnits="userSpaceOnUse"><stop offset="0" stop-color="#6283c4"/><stop offset="1" stop-color="#82a9e2"/></linearGradient><linearGradient id="Безымянный_градиент_795" x1="99.95" y1="144.09" x2="180.79" y2="4.99" gradientUnits="userSpaceOnUse"><stop offset="0" stop-color="#78a1e2"/><stop offset="0.14" stop-color="#83aae6"/><stop offset="0.71" stop-color="#a9caf3"/><stop offset="1" stop-color="#b8d6f8"/></linearGradient></defs><title>Лого виррекс белый фон</title><g id="Слой_2" data-name="Слой 2"><g id="Слой_1-2" data-name="Слой 1"><path class="cls-1" d="M198.52,83.1a7.91,7.91,0,0,1,2.42-5.94,10.41,10.41,0,0,1,13.14,0,8.48,8.48,0,0,1,0,11.94,10.3,10.3,0,0,1-13.05,0A7.88,7.88,0,0,1,198.52,83.1ZM215.57,162H199.46V101.86h16.11Z" transform="translate(-4.99)"/><path class="cls-2" d="M263.18,116.91a43.65,43.65,0,0,0-5.78-.44q-9.11,0-11.94,6.17V162H229.41V101.86h15.17L245,109q4.83-8.28,13.39-8.28a16.83,16.83,0,0,1,5,.72Z" transform="translate(-4.99)"/><path class="cls-3" d="M305.29,116.91a43.63,43.63,0,0,0-5.78-.44q-9.11,0-11.94,6.17V162H271.52V101.86h15.16l.44,7.17q4.83-8.28,13.39-8.28a16.83,16.83,0,0,1,5,.72Z" transform="translate(-4.99)"/><path class="cls-4" d="M340.24,163.08q-13.22,0-21.53-8.11t-8.3-21.61V131.8a36.31,36.31,0,0,1,3.5-16.19,25.69,25.69,0,0,1,9.92-11,27.83,27.83,0,0,1,14.64-3.86q12.33,0,19.42,7.78T365,130.58v6.56H326.69a14.91,14.91,0,0,0,4.69,9.44,14.19,14.19,0,0,0,9.92,3.56q9.28,0,14.5-6.72l7.89,8.83a24.1,24.1,0,0,1-9.78,8A32.09,32.09,0,0,1,340.24,163.08Zm-1.83-49.38a10,10,0,0,0-7.75,3.24q-3,3.24-3.81,9.26h22.33v-1.28q-.11-5.36-2.89-8.29T338.41,113.69Z" transform="translate(-4.99)"/><path class="cls-5" d="M397.57,119.8l10.11-17.94h17.17L407.74,131.3,425.57,162H408.35l-10.72-18.89L387,162H369.69l17.83-30.66-17.05-29.44h17.22Z" transform="translate(-4.99)"/><path class="cls-6" d="M49.3,41.1" transform="translate(-4.99)"/><path class="cls-6" d="M0,41.1" transform="translate(-4.99)"/><polygon class="cls-7" points="160.77 0 140.72 34.67 89.95 52.94 90.51 37.81 160.77 0"/><polygon class="cls-8" points="89.95 52.94 103.14 56.1 129.96 53.32 140.72 34.67 89.95 52.94"/><polygon class="cls-9" points="91.2 120.4 90.52 199.74 0 41.66 45.01 41.61 91.2 120.4"/><polygon class="cls-10" points="200.31 9.51 102.24 179.48 102.22 179.46 90.52 199.74 91.2 120.4 160.77 0 200.31 9.51"/></g></g></svg>