<svg xmlns="http://www.w3.org/2000/svg" xmlns:xlink="http://www.w3.org/1999/xlink" viewBox="0 0 421.29 200.07"><defs><style>.cls-1{fill:url(#Безымянный_градиент_1221);}.cls-2{fill:url(#Безымянный_градиент_1221-2);}.cls-3{fill:url(#Безымянный_градиент_1221-3);}.cls-4{fill:url(#Безымянный_градиент_1221-4);}.cls-5{fill:url(#Безымянный_градиент_1221-5);}.cls-6{fill:none;stroke:#000;stroke-miterlimit:10;stroke-width:0.5px;}.cls-7{fill:url(#Безымянный_градиент_1221-6);}.cls-8{fill:url(#Безымянный_градиент_1195);}.cls-9{fill:url(#Безымянный_градиент_1221-7);}.cls-10{fill:url(#Безымянный_градиент_1195-2);}</style><linearGradient id="Безымянный_градиент_1221" x1="217.88" y1="194.93" x2="211.45" y2="146.06" gradientUnits="userSpaceOnUse"><stop offset="0" stop-color="#8bb4fb"/><stop offset="0.99" stop-color="#bbd4fc"/></linearGradient><linearGradient id="Безымянный_градиент_1221-2" x1="254.32" y1="188.91" x2="248.12" y2="141.82" xlink:href="#Безымянный_градиент_1221"/><linearGradient id="Безымянный_градиент_1221-3" x1="295.78" y1="183.43" x2="289.58" y2="136.34" xlink:href="#Безымянный_градиент_1221"/><linearGradient id="Безымянный_градиент_1221-4" x1="344.2" y1="177.04" x2="338.01" y2="129.95" xlink:href="#Безымянный_градиент_1221"/><linearGradient id="Безымянный_градиент_1221-5" x1="402.83" y1="169.3" x2="396.63" y2="122.21" xlink:href="#Безымянный_градиент_1221"/><linearGradient id="Безымянный_градиент_1221-6" x1="93.22" y1="46.43" x2="142.94" y2="21.42" xlink:href="#Безымянный_градиент_1221"/><linearGradient id="Безымянный_градиент_1195" x1="29.9" y1="-67.75" x2="-41.55" y2="-36.76" gradientTransform="translate(130.94 99.05) rotate(2.14)" gradientUnits="userSpaceOnUse"><stop offset="0" stop-color="#bacffc"/><stop offset="0.25" stop-color="#bfd3fc"/><stop offset="0.56" stop-color="#cdddfd"/><stop offset="0.88" stop-color="#e5edfe"/><stop offset="1" stop-color="#f0f5ff"/></linearGradient><linearGradient id="Безымянный_градиент_1221-7" x1="95.18" y1="180.16" x2="22.53" y2="34.87" xlink:href="#Безымянный_градиент_1221"/><linearGradient id="Безымянный_градиент_1195-2" x1="100.12" y1="144.33" x2="181.1" y2="5" gradientTransform="matrix(1, 0, 0, 1, 0, 0)" xlink:href="#Безымянный_градиент_1195"/></defs><title>Лого виррекс темный фон</title><g id="Слой_2" data-name="Слой 2"><g id="Слой_1-2" data-name="Слой 1"><path class="cls-1" d="M198.85,83.24a7.92,7.92,0,0,1,2.42-6,10.43,10.43,0,0,1,13.16,0,8.5,8.5,0,0,1,0,12,10.32,10.32,0,0,1-13.08,0A7.89,7.89,0,0,1,198.85,83.24Zm17.08,79H199.79V102h16.14Z" transform="translate(-5)"/><path class="cls-2" d="M263.63,117.11a43.73,43.73,0,0,0-5.79-.45q-9.13,0-12,6.18v39.4H229.79V102H245l.45,7.18q4.84-8.29,13.41-8.29a16.86,16.86,0,0,1,5,.72Z" transform="translate(-5)"/><path class="cls-3" d="M305.81,117.11a43.7,43.7,0,0,0-5.79-.45q-9.13,0-12,6.18v39.4H272V102h15.19l.45,7.18q4.84-8.29,13.41-8.29a16.86,16.86,0,0,1,5,.72Z" transform="translate(-5)"/><path class="cls-4" d="M340.81,163.35q-13.24,0-21.56-8.12t-8.32-21.65V132a36.37,36.37,0,0,1,3.51-16.22,25.73,25.73,0,0,1,9.93-11A27.88,27.88,0,0,1,339,100.92q12.35,0,19.45,7.79t7.09,22.09v6.57H327.24a14.93,14.93,0,0,0,4.7,9.46,14.21,14.21,0,0,0,9.93,3.56q9.29,0,14.52-6.73l7.9,8.85a24.14,24.14,0,0,1-9.79,8A32.15,32.15,0,0,1,340.81,163.35ZM339,113.88a10,10,0,0,0-7.76,3.24q-3,3.24-3.81,9.28h22.37v-1.29q-.11-5.37-2.89-8.3T339,113.88Z" transform="translate(-5)"/><path class="cls-5" d="M398.24,120l10.13-18h17.19l-17.14,29.49,17.86,30.72H409L398.3,143.32l-10.68,18.92h-17.3l17.86-30.72L371.09,102h17.25Z" transform="translate(-5)"/><path class="cls-6" d="M49.39,41.17" transform="translate(-5)"/><path class="cls-6" d="M0,41.17" transform="translate(-5)"/><polygon class="cls-7" points="161.04 0 140.96 34.72 90.1 53.03 90.67 37.87 161.04 0"/><polygon class="cls-8" points="90.1 53.03 103.31 56.19 130.18 53.41 140.96 34.72 90.1 53.03"/><polygon class="cls-9" points="91.36 120.6 90.67 200.07 0 41.73 45.09 41.68 91.36 120.6"/><polygon class="cls-10" points="200.64 9.52 102.41 179.78 102.39 179.76 90.67 200.07 91.36 120.6 161.04 0 200.64 9.52"/></g></g></svg>