<svg xmlns="http://www.w3.org/2000/svg" viewBox="0 0 50 50"><defs><style>.cls-1{fill:none;stroke:#000000;stroke-miterlimit:10;stroke-width:2px;}.cls-2{fill:#fff;fill-rule:evenodd;}</style></defs><title>телеграм</title><g id="Слой_2" data-name="Слой 2"><g id="Слой_1-2" data-name="Слой 1"><path class="cls-2" d="M24.33,31a15.63,15.63,0,0,0-1.9,1.72c-.58.58-1.15,1.53-2.31,1.31-.5-.38-.5-1.09-.68-1.68-.52-1.7-1.15-3.62-1.68-5.39-1.6-.56-3.24-1-5-1.59-.52-.16-1.28-.36-1.31-.86-.06-.83,1.78-1.32,2.44-1.58,2.94-1.16,5.92-2.24,8.69-3.31,4-1.54,7.74-3.13,11.55-4.48a1.17,1.17,0,0,1,1.22.36c.39.57,0,1.85-.14,2.58C34.12,23.26,33.13,28,32,33.26c-.21,1-.31,1.86-1,2s-1.43-.42-1.9-.77C27.42,33.29,26,32.21,24.33,31Z"/></g></g></svg>