<svg xmlns="http://www.w3.org/2000/svg" viewBox="0 0 50 50"><defs><style>.cls-1{fill:none;stroke:#000;stroke-miterlimit:10;stroke-width:2px;}.cls-2{fill:#000;fill-rule:evenodd;}</style></defs><title>вк</title><g id="Слой_2" data-name="Слой 2"><g id="Слой_1-2" data-name="Слой 1"><path class="cls-1" d="M25,49h0A24,24,0,0,0,49,25h0A24,24,0,1,0,1,25H1A24,24,0,0,0,25,49Z"/><path class="cls-2" d="M38,19.28v.45c-.73,2.15-2.32,3.86-3.66,5.69-.37.51-1,1.21-.95,1.81s.69,1.13,1.13,1.54A11.93,11.93,0,0,1,38,33.19v.18c-.1.91-1.61.77-2.62.77-1.82,0-3.27.22-4.38-.54a10.23,10.23,0,0,1-1.67-1.67c-.46-.53-1.08-1.51-1.85-1.49-.6,0-.93.67-1.08,1.31s0,1.63-.32,2c-.44.59-2.46.42-3.52.32a7.91,7.91,0,0,1-2.94-.95,12.74,12.74,0,0,1-4.2-3.61,44.58,44.58,0,0,1-5.69-9.89v-.41c.53-.68,5-.52,5.42-.32s.86,1.29,1.17,1.94a25.11,25.11,0,0,0,2.12,3.93c.37.51,1.07,1.41,1.72,1.13s.67-1.62.72-2.48c.08-1.29,0-3.06-.5-3.66-.3-.36-.83-.39-1.26-.63.41-.95,1.7-1,3.16-1,1.14,0,3-.17,3.66.45.45.41.41,1.91.36,2.89a28.07,28.07,0,0,0-.09,3c0,.61.15,1.41.77,1.45s1.34-1,1.58-1.36a20.43,20.43,0,0,0,2.12-3.75c.24-.51.6-1.7,1-1.9C32.5,18.59,37.68,18.59,38,19.28Z"/></g></g></svg>