<svg xmlns="http://www.w3.org/2000/svg" viewBox="0 0 50 50"><defs><style>.cls-1{fill:none;stroke:#a7a7a7;stroke-miterlimit:10;stroke-width:2px;}.cls-2{fill:#a7a7a7;}</style></defs><title>ютуб</title><g id="Слой_2" data-name="Слой 2"><g id="Слой_1-2" data-name="Слой 1"><path class="cls-1" d="M25,49h0A24,24,0,0,0,49,25h0A24,24,0,0,0,1,25H1A24,24,0,0,0,25,49Z"/><path class="cls-2" d="M38,19a3.34,3.34,0,0,0-2.86-2.6A89.1,89.1,0,0,0,25.22,16a89.11,89.11,0,0,0-9.91.37A3.34,3.34,0,0,0,12.45,19,28.39,28.39,0,0,0,12,25.21a28.33,28.33,0,0,0,.46,6.25,3.34,3.34,0,0,0,2.86,2.6,88.85,88.85,0,0,0,9.91.37,88.85,88.85,0,0,0,9.91-.37A3.34,3.34,0,0,0,38,31.46a28.33,28.33,0,0,0,.46-6.25A28.39,28.39,0,0,0,38,19M22.44,28.82V21.48l7,3.67Z"/></g></g></svg>