<svg xmlns="http://www.w3.org/2000/svg" xmlns:xlink="http://www.w3.org/1999/xlink" viewBox="0 0 1305.52 1134.82"><defs><style>.cls-1{fill:#fffafc;}.cls-2{fill:url(#Безымянный_градиент_441);}.cls-3{fill:url(#Безымянный_градиент_448);}.cls-4{fill:url(#Безымянный_градиент_441-2);}.cls-5{fill:url(#Безымянный_градиент_441-3);}.cls-6{fill:url(#Безымянный_градиент_448-2);}.cls-7{fill:url(#Безымянный_градиент_448-3);}.cls-8{fill:#fff;}.cls-9{fill:none;}.cls-10{fill:url(#Безымянный_градиент_441-4);}.cls-11{fill:url(#Безымянный_градиент_448-4);}.cls-12{fill:url(#Безымянный_градиент_441-5);}.cls-13{fill:url(#Безымянный_градиент_441-6);}.cls-14{fill:url(#Безымянный_градиент_448-5);}.cls-15{fill:url(#Безымянный_градиент_448-6);}.cls-16{fill:url(#Безымянный_градиент_441-7);}.cls-17{fill:url(#Безымянный_градиент_441-8);}.cls-18{fill:url(#Безымянный_градиент_448-7);}.cls-19{fill:url(#Безымянный_градиент_448-8);}.cls-20{opacity:0.41;}.cls-21{fill:url(#Безымянный_градиент_441-9);}.cls-22{opacity:0.08;}.cls-23{fill:url(#Безымянный_градиент_441-10);}.cls-24{opacity:0.29;}.cls-25{fill:url(#linear-gradient);}.cls-26{opacity:0.53;}.cls-27{isolation:isolate;}.cls-28{fill:url(#Безымянный_градиент_222);}.cls-29{fill:url(#Безымянный_градиент_222-2);}.cls-30{fill:url(#Безымянный_градиент_222-3);}.cls-31{fill:url(#Безымянный_градиент_222-4);}.cls-32{fill:url(#Безымянный_градиент_222-5);}.cls-33{opacity:0.24;}.cls-34{opacity:0.7;}.cls-35{fill:url(#Безымянный_градиент_94);}.cls-36{fill:url(#Безымянный_градиент_94-2);}.cls-37{fill:url(#linear-gradient-2);}.cls-38{fill:url(#Безымянный_градиент_222-6);}.cls-39{fill:url(#Безымянный_градиент_441-11);}.cls-40{fill:url(#Безымянный_градиент_441-12);}.cls-41{fill:url(#Безымянный_градиент_222-7);}.cls-42{fill:url(#Безымянный_градиент_441-13);}.cls-43{fill:url(#Безымянный_градиент_441-14);}.cls-44{clip-path:url(#clip-path);}.cls-45{opacity:0.79;}.cls-46{clip-path:url(#clip-path-2);}.cls-47{clip-path:url(#clip-path-3);}.cls-48{opacity:0.78;}.cls-49{clip-path:url(#clip-path-4);}.cls-50{clip-path:url(#clip-path-5);}.cls-51{fill:url(#Безымянный_градиент_222-8);}.cls-52{fill:url(#Безымянный_градиент_441-15);}.cls-53{fill:url(#Безымянный_градиент_441-16);}.cls-54{fill:url(#Безымянный_градиент_222-9);}.cls-55{fill:url(#Безымянный_градиент_441-17);}.cls-56{fill:url(#Безымянный_градиент_441-18);}.cls-57{opacity:0.31;}.cls-58{clip-path:url(#clip-path-6);}.cls-59{opacity:0.33;}.cls-60{fill:url(#Безымянный_градиент_222-10);}.cls-61{fill:url(#Безымянный_градиент_441-19);}.cls-62{fill:url(#Безымянный_градиент_441-20);}.cls-63{fill:url(#Безымянный_градиент_222-11);}.cls-64{fill:url(#Безымянный_градиент_441-21);}.cls-65{fill:url(#Безымянный_градиент_441-22);}.cls-66{fill:url(#Безымянный_градиент_222-12);}.cls-67{fill:url(#Безымянный_градиент_441-23);}.cls-68{fill:url(#Безымянный_градиент_441-24);}.cls-69{fill:url(#Безымянный_градиент_222-13);}.cls-70{fill:url(#Безымянный_градиент_441-25);}.cls-71{fill:url(#Безымянный_градиент_441-26);}.cls-72{fill:url(#Безымянный_градиент_448-9);}.cls-73{clip-path:url(#clip-path-7);}.cls-74{fill:url(#Безымянный_градиент_441-28);}.cls-75{fill:url(#Безымянный_градиент_441-29);}.cls-76{fill:url(#Безымянный_градиент_441-30);}.cls-77{fill:url(#Безымянный_градиент_441-31);}.cls-78{clip-path:url(#clip-path-8);}.cls-79{fill:url(#Безымянный_градиент_441-33);}.cls-80{fill:url(#Безымянный_градиент_441-34);}.cls-81{fill:url(#Безымянный_градиент_441-35);}.cls-82{fill:url(#Безымянный_градиент_441-36);}.cls-83{fill:url(#Безымянный_градиент_441-37);}.cls-84{fill:url(#Безымянный_градиент_441-38);}.cls-85{fill:url(#Безымянный_градиент_441-39);}.cls-86{fill:url(#Безымянный_градиент_441-40);}.cls-87{fill:url(#Безымянный_градиент_441-41);}.cls-88{fill:url(#Безымянный_градиент_441-42);}.cls-89{fill:url(#Безымянный_градиент_441-43);}.cls-90{fill:url(#Безымянный_градиент_441-44);}.cls-91{fill:url(#Безымянный_градиент_441-45);}.cls-92{fill:url(#Безымянный_градиент_448-11);}.cls-93{fill:url(#Безымянный_градиент_448-12);}.cls-94{fill:url(#Безымянный_градиент_448-13);}.cls-95{fill:url(#Безымянный_градиент_448-14);}.cls-96{fill:url(#Безымянный_градиент_448-16);}.cls-97{fill:url(#Безымянный_градиент_448-17);}.cls-98{fill:url(#Безымянный_градиент_448-18);}.cls-99{fill:url(#Безымянный_градиент_448-19);}.cls-100{fill:url(#Безымянный_градиент_448-20);}.cls-101{fill:url(#Безымянный_градиент_448-21);}.cls-102{fill:url(#Безымянный_градиент_448-22);}.cls-103{fill:url(#Безымянный_градиент_448-23);}.cls-104{fill:url(#Безымянный_градиент_448-24);}.cls-105{fill:url(#Безымянный_градиент_448-25);}.cls-106{fill:url(#Безымянный_градиент_448-26);}.cls-107{fill:url(#Безымянный_градиент_448-27);}.cls-108{fill:url(#Безымянный_градиент_448-28);}.cls-109{fill:url(#Безымянный_градиент_441-46);}.cls-110{clip-path:url(#clip-path-11);}.cls-111{fill:url(#Безымянный_градиент_222-14);}.cls-112{fill:url(#Безымянный_градиент_441-49);}.cls-113{clip-path:url(#clip-path-17);}.cls-114{fill:url(#Безымянный_градиент_441-52);}.cls-115{clip-path:url(#clip-path-18);}.cls-116{fill:url(#Безымянный_градиент_441-54);}.cls-117{fill:url(#Безымянный_градиент_441-55);}.cls-118{fill:url(#Безымянный_градиент_441-56);}.cls-119{fill:url(#Безымянный_градиент_441-57);}.cls-120{fill:url(#Безымянный_градиент_441-58);}.cls-121{fill:url(#Безымянный_градиент_448-34);}.cls-122{fill:url(#Безымянный_градиент_448-35);}.cls-123{fill:url(#Безымянный_градиент_448-36);}.cls-124{fill:url(#Безымянный_градиент_448-37);}.cls-125{opacity:0.56;}.cls-126{clip-path:url(#clip-path-21);}.cls-127{opacity:0.52;}.cls-128{clip-path:url(#clip-path-22);}.cls-129{fill:url(#Безымянный_градиент_222-15);}.cls-130{fill:url(#Безымянный_градиент_441-61);}.cls-131{clip-path:url(#clip-path-24);}.cls-132{fill:url(#Безымянный_градиент_441-64);}.cls-133{clip-path:url(#clip-path-25);}.cls-134{fill:url(#Безымянный_градиент_441-66);}.cls-135{fill:url(#Безымянный_градиент_441-67);}.cls-136{fill:url(#Безымянный_градиент_441-68);}.cls-137{fill:url(#Безымянный_градиент_441-69);}.cls-138{fill:url(#Безымянный_градиент_441-70);}.cls-139{fill:url(#Безымянный_градиент_448-43);}.cls-140{fill:url(#Безымянный_градиент_448-44);}.cls-141{fill:url(#Безымянный_градиент_448-45);}.cls-142{fill:url(#Безымянный_градиент_448-46);}.cls-143{fill:#d57179;}.cls-144{opacity:0.4;}.cls-145{fill:url(#Безымянный_градиент_448-47);}</style><linearGradient id="Безымянный_градиент_441" x1="387.56" y1="676.33" x2="336.57" y2="694.33" gradientUnits="userSpaceOnUse"><stop offset="0" stop-color="#e3ffff"/><stop offset="0.71" stop-color="#76cdff"/><stop offset="0.99" stop-color="#76c4ff"/></linearGradient><linearGradient id="Безымянный_градиент_448" x1="387.56" y1="676.33" x2="336.57" y2="694.33" gradientUnits="userSpaceOnUse"><stop offset="0" stop-color="#00f4de" stop-opacity="0.2"/><stop offset="1" stop-color="#006dfa"/></linearGradient><linearGradient id="Безымянный_градиент_441-2" x1="544.11" y1="659.65" x2="471.61" y2="712.65" xlink:href="#Безымянный_градиент_441"/><linearGradient id="Безымянный_градиент_441-3" x1="570.72" y1="696.04" x2="498.22" y2="749.04" xlink:href="#Безымянный_градиент_441"/><linearGradient id="Безымянный_градиент_448-2" x1="475.59" y1="712.51" x2="407.93" y2="750.85" xlink:href="#Безымянный_градиент_448"/><linearGradient id="Безымянный_градиент_448-3" x1="438.88" y1="680.11" x2="536.37" y2="761.1" xlink:href="#Безымянный_градиент_448"/><linearGradient id="Безымянный_градиент_441-4" x1="387.56" y1="647.33" x2="336.57" y2="665.33" xlink:href="#Безымянный_градиент_441"/><linearGradient id="Безымянный_градиент_448-4" x1="387.56" y1="647.33" x2="336.57" y2="665.33" xlink:href="#Безымянный_градиент_448"/><linearGradient id="Безымянный_градиент_441-5" x1="544.11" y1="646.65" x2="471.61" y2="699.65" xlink:href="#Безымянный_градиент_441"/><linearGradient id="Безымянный_градиент_441-6" x1="570.72" y1="683.04" x2="498.22" y2="736.04" xlink:href="#Безымянный_градиент_441"/><linearGradient id="Безымянный_градиент_448-5" x1="475.59" y1="699.51" x2="407.93" y2="737.85" xlink:href="#Безымянный_градиент_448"/><linearGradient id="Безымянный_градиент_448-6" x1="438.88" y1="667.11" x2="536.37" y2="748.1" xlink:href="#Безымянный_градиент_448"/><linearGradient id="Безымянный_градиент_441-7" x1="917.21" y1="603.25" x2="851.22" y2="717.25" xlink:href="#Безымянный_градиент_441"/><linearGradient id="Безымянный_градиент_441-8" x1="833.09" y1="554.55" x2="767.09" y2="668.55" xlink:href="#Безымянный_градиент_441"/><linearGradient id="Безымянный_градиент_448-7" x1="518.47" y1="662.22" x2="816.47" y2="642.22" xlink:href="#Безымянный_градиент_448"/><linearGradient id="Безымянный_градиент_448-8" x1="522.35" y1="720.05" x2="820.35" y2="700.05" xlink:href="#Безымянный_градиент_448"/><linearGradient id="Безымянный_градиент_441-9" x1="1018.46" y1="545.55" x2="1314.46" y2="481.55" xlink:href="#Безымянный_градиент_441"/><linearGradient id="Безымянный_градиент_441-10" x1="-169.82" y1="590.67" x2="578.18" y2="708.67" xlink:href="#Безымянный_градиент_441"/><linearGradient id="linear-gradient" x1="632.83" y1="656.62" x2="770.83" y2="1158.62" gradientUnits="userSpaceOnUse"><stop offset="0" stop-color="#97def8" stop-opacity="0"/><stop offset="1" stop-color="#fff" stop-opacity="0.9"/></linearGradient><linearGradient id="Безымянный_градиент_222" x1="846.18" y1="427.61" x2="1060.18" y2="429.61" gradientUnits="userSpaceOnUse"><stop offset="0" stop-color="#97def8"/><stop offset="1" stop-color="#006fff"/></linearGradient><linearGradient id="Безымянный_градиент_222-2" x1="370.01" y1="421.88" x2="762.01" y2="237.88" xlink:href="#Безымянный_градиент_222"/><linearGradient id="Безымянный_градиент_222-3" x1="852.05" y1="777.72" x2="188.05" y2="809.72" xlink:href="#Безымянный_градиент_222"/><linearGradient id="Безымянный_градиент_222-4" x1="1061.95" y1="681.39" x2="1293.95" y2="367.39" xlink:href="#Безымянный_градиент_222"/><linearGradient id="Безымянный_градиент_222-5" x1="0" y1="644.36" x2="1303.59" y2="644.36" xlink:href="#Безымянный_градиент_222"/><linearGradient id="Безымянный_градиент_94" x1="1043.96" y1="203.17" x2="923.95" y2="689.22" gradientUnits="userSpaceOnUse"><stop offset="0.14" stop-color="#59e27c"/><stop offset="0.25" stop-color="#5de47a"/><stop offset="0.37" stop-color="#6ae975"/><stop offset="0.5" stop-color="#7ff16b"/><stop offset="0.62" stop-color="#9dfd5f"/><stop offset="0.65" stop-color="#a3ff5c"/><stop offset="0.72" stop-color="#7de863"/><stop offset="0.79" stop-color="#5fd669"/><stop offset="0.87" stop-color="#49c96e"/><stop offset="0.94" stop-color="#3cc170"/><stop offset="1" stop-color="#38be71"/></linearGradient><linearGradient id="Безымянный_градиент_94-2" x1="451.03" y1="404.34" x2="379.03" y2="908.39" xlink:href="#Безымянный_градиент_94"/><linearGradient id="linear-gradient-2" x1="202.74" y1="576.32" x2="1736.74" y2="594.32" gradientUnits="userSpaceOnUse"><stop offset="0" stop-color="#59e27c"/><stop offset="0.09" stop-color="#5de47a"/><stop offset="0.19" stop-color="#6ae975"/><stop offset="0.3" stop-color="#7ff16b"/><stop offset="0.4" stop-color="#9dfd5f"/><stop offset="0.42" stop-color="#a3ff5c"/><stop offset="0.7" stop-color="#a3ff5c"/><stop offset="0.76" stop-color="#7de863"/><stop offset="0.82" stop-color="#5fd669"/><stop offset="0.88" stop-color="#49c96e"/><stop offset="0.94" stop-color="#3cc170"/><stop offset="1" stop-color="#38be71"/></linearGradient><linearGradient id="Безымянный_градиент_222-6" x1="716.07" y1="197.77" x2="759.56" y2="475.26" xlink:href="#Безымянный_градиент_222"/><linearGradient id="Безымянный_градиент_441-11" x1="675.49" y1="192.49" x2="675.49" y2="339.48" xlink:href="#Безымянный_градиент_441"/><linearGradient id="Безымянный_градиент_441-12" x1="753.65" y1="156.32" x2="669.65" y2="210.32" xlink:href="#Безымянный_градиент_441"/><linearGradient id="Безымянный_градиент_222-7" x1="847.58" y1="153.47" x2="795.08" y2="463.96" xlink:href="#Безымянный_градиент_222"/><linearGradient id="Безымянный_градиент_441-13" x1="816.21" y1="177.45" x2="723.22" y2="438.44" xlink:href="#Безымянный_градиент_441"/><linearGradient id="Безымянный_градиент_441-14" x1="655.84" y1="137" x2="958.82" y2="137" xlink:href="#Безымянный_градиент_441"/><clipPath id="clip-path" transform="translate(0 -45.5)"><path class="cls-1" d="M458.78,697.5l1,49.85-1.14-.69-1-49.85Z"/></clipPath><clipPath id="clip-path-2" transform="translate(0 -45.5)"><path class="cls-1" d="M561.77,732.35l1,49.85c-41.19-6.44-76.21-18.76-103-34.86l-1-49.85C485.56,713.59,520.58,725.91,561.77,732.35Z"/></clipPath><clipPath id="clip-path-3" transform="translate(0 -45.5)"><path class="cls-8" d="M389,696.52l1,49.85c-32.19-19.63-52.27-44.77-56.58-71.67l-1-49.85C336.78,651.75,356.85,676.89,389,696.52Z"/></clipPath><clipPath id="clip-path-4" transform="translate(0 -45.5)"><path class="cls-8" d="M902.49,592.31l1,49.85c.27,12.85-3.07,26-10.38,39l-1-49.85C899.42,618.32,902.75,605.17,902.49,592.31Z"/></clipPath><clipPath id="clip-path-5" transform="translate(0 -45.5)"><path class="cls-8" d="M892.11,631.36l1,49.85c-37.62,67.11-166.28,106.16-287.38,87.23l-1-49.85C725.83,737.53,854.49,698.47,892.11,631.36Z"/></clipPath><linearGradient id="Безымянный_градиент_222-8" x1="962.1" y1="254.83" x2="891.6" y2="412.32" xlink:href="#Безымянный_градиент_222"/><linearGradient id="Безымянный_градиент_441-15" x1="902.69" y1="285.5" x2="793.2" y2="480.49" xlink:href="#Безымянный_градиент_441"/><linearGradient id="Безымянный_градиент_441-16" x1="916.71" y1="210.27" x2="787.71" y2="360.26" xlink:href="#Безымянный_градиент_441"/><linearGradient id="Безымянный_градиент_222-9" x1="1069.76" y1="304.45" x2="933.27" y2="551.93" xlink:href="#Безымянный_градиент_222"/><linearGradient id="Безымянный_градиент_441-17" x1="931.05" y1="391.02" x2="907.05" y2="515.51" xlink:href="#Безымянный_градиент_441"/><linearGradient id="Безымянный_градиент_441-18" x1="923.24" y1="339.05" x2="993.74" y2="459.05" xlink:href="#Безымянный_градиент_441"/><clipPath id="clip-path-6" transform="translate(0 -45.5)"><polygon class="cls-9" points="620.56 222.33 642.56 236.07 703.6 267.63 721.35 257.29 719.83 183.92 780.86 215.48 800.21 204.2 802.21 320.54 863.24 352.11 879.6 342.57 881.6 417.27 942.63 448.82 1019.89 404 1078.22 170 1025.22 29 849.39 0 686.22 0 618 132.05 620.56 222.33"/></clipPath><linearGradient id="Безымянный_градиент_222-10" x1="714.07" y1="93.76" x2="757.56" y2="371.24" xlink:href="#Безымянный_градиент_222"/><linearGradient id="Безымянный_градиент_441-19" x1="673.49" y1="88.47" x2="673.49" y2="235.47" xlink:href="#Безымянный_градиент_441"/><linearGradient id="Безымянный_градиент_441-20" x1="751.65" y1="52.3" x2="667.65" y2="106.3" xlink:href="#Безымянный_градиент_441"/><linearGradient id="Безымянный_градиент_222-11" x1="845.58" y1="49.46" x2="793.08" y2="359.94" xlink:href="#Безымянный_градиент_222"/><linearGradient id="Безымянный_градиент_441-21" x1="814.21" y1="73.43" x2="721.22" y2="334.42" xlink:href="#Безымянный_градиент_441"/><linearGradient id="Безымянный_градиент_441-22" x1="653.84" y1="32.98" x2="956.82" y2="32.98" xlink:href="#Безымянный_градиент_441"/><linearGradient id="Безымянный_градиент_222-12" x1="960.1" y1="150.81" x2="889.6" y2="308.3" xlink:href="#Безымянный_градиент_222"/><linearGradient id="Безымянный_градиент_441-23" x1="900.69" y1="181.48" x2="791.2" y2="376.47" xlink:href="#Безымянный_градиент_441"/><linearGradient id="Безымянный_градиент_441-24" x1="914.71" y1="106.25" x2="785.71" y2="256.25" xlink:href="#Безымянный_градиент_441"/><linearGradient id="Безымянный_градиент_222-13" x1="1067.76" y1="200.43" x2="931.27" y2="447.92" xlink:href="#Безымянный_градиент_222"/><linearGradient id="Безымянный_градиент_441-25" x1="929.05" y1="287" x2="905.05" y2="411.5" xlink:href="#Безымянный_градиент_441"/><linearGradient id="Безымянный_градиент_441-26" x1="921.24" y1="235.03" x2="991.74" y2="355.03" xlink:href="#Безымянный_градиент_441"/><linearGradient id="Безымянный_градиент_448-9" x1="720.84" y1="490.33" x2="554.35" y2="586.32" xlink:href="#Безымянный_градиент_448"/><clipPath id="clip-path-7" transform="translate(0 -45.5)"><path class="cls-16" d="M902.49,592.31l1,49.85c.27,12.85-3.07,26-10.38,39l-1-49.85C899.42,618.32,902.75,605.17,902.49,592.31Z"/></clipPath><linearGradient id="Безымянный_градиент_441-28" x1="914.84" y1="601.88" x2="848.84" y2="715.87" xlink:href="#Безымянный_градиент_441"/><linearGradient id="Безымянный_градиент_441-29" x1="918.52" y1="604.01" x2="852.52" y2="718" xlink:href="#Безымянный_градиент_441"/><linearGradient id="Безымянный_градиент_441-30" x1="920.77" y1="605.32" x2="854.78" y2="719.31" xlink:href="#Безымянный_градиент_441"/><linearGradient id="Безымянный_градиент_441-31" x1="921.67" y1="605.84" x2="855.68" y2="719.83" xlink:href="#Безымянный_градиент_441"/><clipPath id="clip-path-8" transform="translate(0 -45.5)"><path class="cls-17" d="M892.11,631.36l1,49.85c-37.62,67.11-166.28,106.16-287.38,87.23l-1-49.85C725.83,737.53,854.49,698.47,892.11,631.36Z"/></clipPath><linearGradient id="Безымянный_градиент_441-33" x1="921.71" y1="605.86" x2="855.71" y2="719.85" xlink:href="#Безымянный_градиент_441"/><linearGradient id="Безымянный_градиент_441-34" x1="920.73" y1="605.29" x2="854.74" y2="719.29" xlink:href="#Безымянный_градиент_441"/><linearGradient id="Безымянный_градиент_441-35" x1="917.49" y1="603.41" x2="851.49" y2="717.41" xlink:href="#Безымянный_градиент_441"/><linearGradient id="Безымянный_градиент_441-36" x1="908.95" y1="598.47" x2="842.96" y2="712.47" xlink:href="#Безымянный_градиент_441"/><linearGradient id="Безымянный_градиент_441-37" x1="888.34" y1="586.54" x2="822.34" y2="700.53" xlink:href="#Безымянный_градиент_441"/><linearGradient id="Безымянный_градиент_441-38" x1="860.63" y1="570.5" x2="794.64" y2="684.49" xlink:href="#Безымянный_градиент_441"/><linearGradient id="Безымянный_градиент_441-39" x1="837.91" y1="557.34" x2="771.91" y2="671.34" xlink:href="#Безымянный_градиент_441"/><linearGradient id="Безымянный_градиент_441-40" x1="820.09" y1="547.03" x2="754.09" y2="661.02" xlink:href="#Безымянный_градиент_441"/><linearGradient id="Безымянный_градиент_441-41" x1="803.82" y1="537.61" x2="737.82" y2="651.6" xlink:href="#Безымянный_градиент_441"/><linearGradient id="Безымянный_градиент_441-42" x1="788.12" y1="528.52" x2="722.13" y2="642.51" xlink:href="#Безымянный_градиент_441"/><linearGradient id="Безымянный_градиент_441-43" x1="772.45" y1="519.45" x2="706.45" y2="633.44" xlink:href="#Безымянный_градиент_441"/><linearGradient id="Безымянный_градиент_441-44" x1="756.35" y1="510.12" x2="690.35" y2="624.12" xlink:href="#Безымянный_градиент_441"/><linearGradient id="Безымянный_градиент_441-45" x1="746.26" y1="504.28" x2="680.26" y2="618.27" xlink:href="#Безымянный_градиент_441"/><linearGradient id="Безымянный_градиент_448-11" x1="517.57" y1="648.77" x2="815.57" y2="628.77" xlink:href="#Безымянный_градиент_448"/><linearGradient id="Безымянный_градиент_448-12" x1="518.32" y1="659.89" x2="816.32" y2="639.89" xlink:href="#Безымянный_градиент_448"/><linearGradient id="Безымянный_градиент_448-13" x1="519.05" y1="670.83" x2="817.05" y2="650.83" xlink:href="#Безымянный_градиент_448"/><linearGradient id="Безымянный_градиент_448-14" x1="519.59" y1="678.8" x2="817.59" y2="658.8" xlink:href="#Безымянный_градиент_448"/><linearGradient id="Безымянный_градиент_448-16" x1="519.96" y1="684.43" x2="817.96" y2="664.43" xlink:href="#Безымянный_градиент_448"/><linearGradient id="Безымянный_градиент_448-17" x1="520.56" y1="693.3" x2="818.56" y2="673.3" xlink:href="#Безымянный_градиент_448"/><linearGradient id="Безымянный_градиент_448-18" x1="521.38" y1="705.52" x2="819.39" y2="685.52" xlink:href="#Безымянный_градиент_448"/><linearGradient id="Безымянный_градиент_448-19" x1="522.39" y1="720.58" x2="820.39" y2="700.58" xlink:href="#Безымянный_градиент_448"/><linearGradient id="Безымянный_градиент_448-20" x1="523.6" y1="738.58" x2="821.6" y2="718.58" xlink:href="#Безымянный_градиент_448"/><linearGradient id="Безымянный_градиент_448-21" x1="524.49" y1="751.89" x2="822.49" y2="731.89" xlink:href="#Безымянный_градиент_448"/><linearGradient id="Безымянный_градиент_448-22" x1="524.83" y1="757.01" x2="822.83" y2="737.01" xlink:href="#Безымянный_градиент_448"/><linearGradient id="Безымянный_градиент_448-23" x1="524.94" y1="758.51" x2="822.94" y2="738.51" xlink:href="#Безымянный_градиент_448"/><linearGradient id="Безымянный_градиент_448-24" x1="524.93" y1="758.44" x2="822.93" y2="738.44" xlink:href="#Безымянный_градиент_448"/><linearGradient id="Безымянный_градиент_448-25" x1="524.85" y1="757.25" x2="822.85" y2="737.25" xlink:href="#Безымянный_градиент_448"/><linearGradient id="Безымянный_градиент_448-26" x1="524.7" y1="755.06" x2="822.7" y2="735.06" xlink:href="#Безымянный_градиент_448"/><linearGradient id="Безымянный_градиент_448-27" x1="524.49" y1="751.83" x2="822.49" y2="731.83" xlink:href="#Безымянный_градиент_448"/><linearGradient id="Безымянный_градиент_448-28" x1="524.33" y1="749.45" x2="822.33" y2="729.45" xlink:href="#Безымянный_градиент_448"/><linearGradient id="Безымянный_градиент_441-46" x1="509.47" y1="590.15" x2="897.95" y2="606.64" xlink:href="#Безымянный_градиент_441"/><clipPath id="clip-path-11" transform="translate(0 -45.5)"><path class="cls-2" d="M389,696.52l1,49.85c-32.19-19.63-52.27-44.77-56.58-71.67l-1-49.85C336.78,651.75,356.85,676.89,389,696.52Z"/></clipPath><linearGradient id="Безымянный_градиент_222-14" x1="577.36" y1="597.39" x2="362.87" y2="672.39" xlink:href="#Безымянный_градиент_222"/><linearGradient id="Безымянный_градиент_441-49" x1="409.48" y1="646.83" x2="583.47" y2="597.33" xlink:href="#Безымянный_градиент_441"/><clipPath id="clip-path-17" transform="translate(0 -45.5)"><path class="cls-4" d="M458.78,697.5l1,49.85-1.14-.69-1-49.85Z"/></clipPath><linearGradient id="Безымянный_градиент_441-52" x1="618.11" y1="558.28" x2="593.11" y2="664.78" xlink:href="#Безымянный_градиент_441"/><clipPath id="clip-path-18" transform="translate(0 -45.5)"><path class="cls-5" d="M561.77,732.35l1,49.85c-41.19-6.44-76.21-18.76-103-34.86l-1-49.85C485.56,713.59,520.58,725.91,561.77,732.35Z"/></clipPath><linearGradient id="Безымянный_градиент_441-54" x1="593.36" y1="727.01" x2="520.86" y2="780.01" xlink:href="#Безымянный_градиент_441"/><linearGradient id="Безымянный_градиент_441-55" x1="584.58" y1="715" x2="512.08" y2="768" xlink:href="#Безымянный_градиент_441"/><linearGradient id="Безымянный_градиент_441-56" x1="572.92" y1="699.05" x2="500.42" y2="752.05" xlink:href="#Безымянный_градиент_441"/><linearGradient id="Безымянный_градиент_441-57" x1="555.46" y1="675.17" x2="482.96" y2="728.17" xlink:href="#Безымянный_градиент_441"/><linearGradient id="Безымянный_градиент_441-58" x1="572.17" y1="647.5" x2="484.17" y2="742" xlink:href="#Безымянный_градиент_441"/><linearGradient id="Безымянный_градиент_448-34" x1="448.69" y1="668.3" x2="546.18" y2="749.3" xlink:href="#Безымянный_градиент_448"/><linearGradient id="Безымянный_градиент_448-35" x1="442.76" y1="675.44" x2="540.25" y2="756.43" xlink:href="#Безымянный_градиент_448"/><linearGradient id="Безымянный_градиент_448-36" x1="436.27" y1="683.25" x2="533.77" y2="764.24" xlink:href="#Безымянный_градиент_448"/><linearGradient id="Безымянный_градиент_448-37" x1="429.74" y1="691.11" x2="527.23" y2="772.11" xlink:href="#Безымянный_градиент_448"/><clipPath id="clip-path-21" transform="translate(0 -45.5)"><path class="cls-9" d="M333,621.46a33.26,33.26,0,0,0,.07,6.6,35.57,35.57,0,0,0,3.31,11.29c3.3,7.27,6,13.12,11.2,20.44,10.88,15.2,23.15,24.2,30.84,29.72,4.36,3.13,8.1,5.48,10.64,7l172.21-86L572,612.25l-9.69,19.13L457.63,683.8v13l2.76,1.65C486.69,713.94,520,726.79,562,731.89l77.6-136.39-38.91-22L510,557.75l-96.25-1.5-84,14.25Z"/></clipPath><clipPath id="clip-path-22" transform="translate(0 -45.5)"><path class="cls-10" d="M389,667.52l1,49.85c-32.19-19.63-52.27-44.77-56.58-71.67l-1-49.85C336.78,622.75,356.85,647.89,389,667.52Z"/></clipPath><linearGradient id="Безымянный_градиент_222-15" x1="577.36" y1="568.39" x2="362.87" y2="643.39" xlink:href="#Безымянный_градиент_222"/><linearGradient id="Безымянный_градиент_441-61" x1="409.48" y1="617.83" x2="583.47" y2="568.33" xlink:href="#Безымянный_градиент_441"/><clipPath id="clip-path-24" transform="translate(0 -45.5)"><path class="cls-12" d="M458.78,684.5l1,49.85-1.14-.69-1-49.85Z"/></clipPath><linearGradient id="Безымянный_градиент_441-64" x1="618.11" y1="545.28" x2="593.11" y2="651.78" xlink:href="#Безымянный_градиент_441"/><clipPath id="clip-path-25" transform="translate(0 -45.5)"><path class="cls-13" d="M561.77,719.35l1,49.85c-41.19-6.44-76.21-18.76-103-34.86l-1-49.85C485.56,700.59,520.58,712.91,561.77,719.35Z"/></clipPath><linearGradient id="Безымянный_градиент_441-66" x1="593.36" y1="714.01" x2="520.86" y2="767.01" xlink:href="#Безымянный_градиент_441"/><linearGradient id="Безымянный_градиент_441-67" x1="584.58" y1="702" x2="512.08" y2="755" xlink:href="#Безымянный_градиент_441"/><linearGradient id="Безымянный_градиент_441-68" x1="572.92" y1="686.05" x2="500.42" y2="739.05" xlink:href="#Безымянный_градиент_441"/><linearGradient id="Безымянный_градиент_441-69" x1="555.46" y1="662.17" x2="482.96" y2="715.17" xlink:href="#Безымянный_градиент_441"/><linearGradient id="Безымянный_градиент_441-70" x1="572.17" y1="634.5" x2="484.17" y2="729" xlink:href="#Безымянный_градиент_441"/><linearGradient id="Безымянный_градиент_448-43" x1="448.69" y1="655.3" x2="546.18" y2="736.3" xlink:href="#Безымянный_градиент_448"/><linearGradient id="Безымянный_градиент_448-44" x1="442.76" y1="662.44" x2="540.25" y2="743.43" xlink:href="#Безымянный_градиент_448"/><linearGradient id="Безымянный_градиент_448-45" x1="436.27" y1="670.25" x2="533.77" y2="751.24" xlink:href="#Безымянный_градиент_448"/><linearGradient id="Безымянный_градиент_448-46" x1="429.74" y1="678.11" x2="527.23" y2="759.11" xlink:href="#Безымянный_градиент_448"/><linearGradient id="Безымянный_градиент_448-47" x1="483" y1="717.19" x2="703.49" y2="577.69" xlink:href="#Безымянный_градиент_448"/></defs><title>торговля2</title><g id="Слой_2" data-name="Слой 2"><g id="Layer_1" data-name="Layer 1"><g class="cls-20"><polygon class="cls-21" points="1284.09 599.91 659.22 956.18 16.07 637.43 658.56 290.41 1284.09 599.91"/></g><g class="cls-22"><polygon class="cls-23" points="1295.28 699.78 670.41 1056.05 27.25 737.3 669.75 390.29 1295.28 699.78"/></g><g class="cls-24"><polygon class="cls-25" points="1305.52 778.55 680.65 1134.82 37.49 816.06 679.99 469.05 1305.52 778.55"/></g><g class="cls-26"><g class="cls-27"><polygon class="cls-28" points="1302.17 582.61 1302.87 616.02 640 274.95 639.3 241.53 1302.17 582.61"/><polygon class="cls-29" points="639.3 241.53 640 274.95 2.11 648.51 1.42 615.1 639.3 241.53"/><polygon class="cls-30" points="664.32 956.96 665.01 990.37 0.69 648.55 0 615.14 664.32 956.96"/><polygon class="cls-31" points="1303.59 582.58 1304.28 615.99 665.01 990.37 664.32 956.96 1303.59 582.58"/><path class="cls-32" d="M1303.59,628.08,664.32,1002.46,0,660.64,639.28,286.26ZM1.42,660.6l662.87,341.08,637.88-373.57L639.31,287,1.42,660.6" transform="translate(0 -45.5)"/></g></g><g class="cls-33"><g class="cls-27"><polygon class="cls-8" points="1302.5 563.63 1303.19 597.04 640.32 255.96 639.63 222.55 1302.5 563.63"/><polygon class="cls-8" points="639.63 222.55 640.32 255.96 2.44 629.53 1.75 596.12 639.63 222.55"/><polygon class="cls-8" points="664.64 937.98 665.33 971.39 1.01 629.57 0.32 596.15 664.64 937.98"/><polygon class="cls-8" points="1303.91 563.6 1304.6 597.01 665.33 971.39 664.64 937.98 1303.91 563.6"/><path class="cls-8" d="M1303.91,609.1,664.64,983.48.32,641.66,639.6,267.28ZM1.75,641.62,664.62,982.7,1302.5,609.13,639.63,268.05,1.75,641.62" transform="translate(0 -45.5)"/></g></g><g class="cls-34"><g class="cls-27"><polygon class="cls-35" points="1162.24 568.84 1163.1 610.6 662.38 903.84 661.52 862.08 1162.24 568.84"/><polygon class="cls-36" points="661.52 862.08 662.38 903.84 142.05 636.1 141.18 594.34 661.52 862.08"/><polygon class="cls-37" points="1162.24 568.84 661.52 862.08 141.18 594.34 641.9 301.1 1162.24 568.84"/></g></g><g class="cls-27"><polygon class="cls-38" points="762.61 187.73 767.44 421.61 708.43 456.01 703.6 222.13 762.61 187.73"/><polygon class="cls-39" points="703.6 222.13 708.43 456.01 647.39 424.45 642.56 190.57 703.6 222.13"/><polygon class="cls-40" points="762.61 187.73 703.6 222.13 642.56 190.57 701.58 156.16 762.61 187.73"/></g><g class="cls-27"><polygon class="cls-41" points="839.88 135.57 848 529 788.99 563.4 780.86 169.98 839.88 135.57"/><polygon class="cls-42" points="780.86 169.98 788.99 563.4 727.95 531.84 719.83 138.41 780.86 169.98"/><polygon class="cls-43" points="839.88 135.57 780.86 169.98 719.83 138.41 778.85 104.02 839.88 135.57"/></g><path class="cls-1" d="M458.78,697.5l1,49.85-1.14-.69-1-49.85Z" transform="translate(0 -45.5)"/><g class="cls-44"><g class="cls-27"><path class="cls-1" d="M458.78,697.5l1,49.85-1.14-.69-1-49.85,1.14.69" transform="translate(0 -45.5)"/></g></g><g class="cls-45"><path class="cls-1" d="M561.77,732.35l1,49.85c-41.19-6.44-76.21-18.76-103-34.86l-1-49.85C485.56,713.59,520.58,725.91,561.77,732.35Z" transform="translate(0 -45.5)"/><g class="cls-46"><g class="cls-27"><path class="cls-1" d="M561.77,732.35l1,49.85q-8.47-1.32-16.59-3l-1-49.85q8.11,1.65,16.59,3" transform="translate(0 -45.5)"/><path class="cls-1" d="M545.18,729.38l1,49.85q-11.61-2.36-22.45-5.34l-1-49.85q10.84,3,22.45,5.34" transform="translate(0 -45.5)"/><path class="cls-1" d="M522.73,724l1,49.85q-13.52-3.72-25.78-8.33l-1-49.85q12.24,4.6,25.78,8.33" transform="translate(0 -45.5)"/><path class="cls-1" d="M496.95,715.7l1,49.85a233.69,233.69,0,0,1-38.17-18.21l-1-49.85a233.69,233.69,0,0,0,38.17,18.21" transform="translate(0 -45.5)"/></g></g></g><path class="cls-8" d="M389,696.52l1,49.85c-32.19-19.63-52.27-44.77-56.58-71.67l-1-49.85C336.78,651.75,356.85,676.89,389,696.52Z" transform="translate(0 -45.5)"/><g class="cls-47"><g class="cls-27"><path class="cls-8" d="M389,696.52l1,49.85c-32.19-19.63-52.27-44.77-56.58-71.67l-1-49.85c4.32,26.9,24.39,52,56.58,71.67" transform="translate(0 -45.5)"/></g></g><g class="cls-48"><path class="cls-8" d="M902.49,592.31l1,49.85c.27,12.85-3.07,26-10.38,39l-1-49.85C899.42,618.32,902.75,605.17,902.49,592.31Z" transform="translate(0 -45.5)"/><g class="cls-49"><g class="cls-27"><path class="cls-8" d="M902.49,592.31l1,49.85a69.4,69.4,0,0,1-.71,11.38l-1-49.85a69.4,69.4,0,0,0,.71-11.38" transform="translate(0 -45.5)"/><path class="cls-8" d="M901.78,603.69l1,49.85a73.58,73.58,0,0,1-2.53,11.17l-1-49.85a73.58,73.58,0,0,0,2.53-11.17" transform="translate(0 -45.5)"/><path class="cls-8" d="M899.25,614.87l1,49.85A82.23,82.23,0,0,1,895.85,676l-1-49.85a82.23,82.23,0,0,0,4.44-11.28" transform="translate(0 -45.5)"/><path class="cls-8" d="M894.82,626.15l1,49.85q-1.25,2.61-2.71,5.22l-1-49.85q1.46-2.61,2.71-5.22" transform="translate(0 -45.5)"/></g></g></g><g class="cls-48"><path class="cls-8" d="M892.11,631.36l1,49.85c-37.62,67.11-166.28,106.16-287.38,87.23l-1-49.85C725.83,737.53,854.49,698.47,892.11,631.36Z" transform="translate(0 -45.5)"/><g class="cls-50"><g class="cls-27"><path class="cls-8" d="M892.11,631.36l1,49.85q-1.86,3.31-4,6.53l-1-49.85q2.15-3.22,4-6.53" transform="translate(0 -45.5)"/><path class="cls-8" d="M888.11,637.89l1,49.85a112.87,112.87,0,0,1-9.44,12.2l-1-49.85a112.87,112.87,0,0,0,9.44-12.2" transform="translate(0 -45.5)"/><path class="cls-8" d="M878.66,650.1l1,49.85a139,139,0,0,1-14.36,13.95l-1-49.85a139,139,0,0,0,14.36-13.95" transform="translate(0 -45.5)"/><path class="cls-8" d="M864.3,664l1,49.85A186.23,186.23,0,0,1,837.76,733l-1-49.85A186.23,186.23,0,0,0,864.3,664" transform="translate(0 -45.5)"/><path class="cls-8" d="M836.73,683.15l1,49.85a271.48,271.48,0,0,1-51.49,22.36l-1-49.85a271.48,271.48,0,0,0,51.49-22.36" transform="translate(0 -45.5)"/><path class="cls-8" d="M785.24,705.52l1,49.85A354.16,354.16,0,0,1,744.69,766l-1-49.85a354.16,354.16,0,0,0,41.58-10.61" transform="translate(0 -45.5)"/><path class="cls-8" d="M743.66,716.13l1,49.85q-13.6,2.63-27.76,4.33l-1-49.85q14.13-1.69,27.76-4.33" transform="translate(0 -45.5)"/><path class="cls-8" d="M715.9,720.46l1,49.85q-11.64,1.4-23.56,2.13l-1-49.85q11.9-.73,23.56-2.13" transform="translate(0 -45.5)"/><path class="cls-8" d="M692.34,722.59l1,49.85q-10.7.66-21.56.76l-1-49.85q10.85-.1,21.56-.76" transform="translate(0 -45.5)"/><path class="cls-8" d="M670.78,723.35l1,49.85q-10.26.1-20.61-.32l-1-49.85q10.34.42,20.61.32" transform="translate(0 -45.5)"/><path class="cls-8" d="M650.17,723l1,49.85q-10.13-.41-20.28-1.33l-1-49.85q10.15.92,20.28,1.33" transform="translate(0 -45.5)"/><path class="cls-8" d="M629.89,721.7l1,49.85q-10.29-.94-20.55-2.41l-1-49.85q10.25,1.48,20.55,2.41" transform="translate(0 -45.5)"/><path class="cls-8" d="M609.34,719.29l1,49.85-4.61-.69-1-49.85,4.61.69" transform="translate(0 -45.5)"/></g></g></g><polygon class="cls-8" points="672.85 551.58 673.88 601.43 445.09 615.74 444.06 565.89 672.85 551.58"/><g class="cls-27"><polygon class="cls-51" points="922.25 272.2 927.01 502.31 867.99 536.71 863.24 306.6 922.25 272.2"/><polygon class="cls-52" points="863.24 306.6 867.99 536.71 806.96 505.14 802.21 275.04 863.24 306.6"/><polygon class="cls-53" points="922.25 272.2 863.24 306.6 802.21 275.04 861.22 240.63 922.25 272.2"/></g><g class="cls-27"><polygon class="cls-54" points="1001.65 368.92 1005.45 552.69 946.42 587.09 942.63 403.32 1001.65 368.92"/><polygon class="cls-55" points="942.63 403.32 946.42 587.09 885.39 555.53 881.6 371.76 942.63 403.32"/><polygon class="cls-56" points="1001.65 368.92 942.63 403.32 881.6 371.76 940.61 337.36 1001.65 368.92"/></g><g class="cls-57"><g class="cls-58"><g class="cls-59"><g class="cls-27"><polygon class="cls-60" points="760.61 83.71 765.44 317.59 706.43 352 701.6 118.11 760.61 83.71"/><polygon class="cls-61" points="701.6 118.11 706.43 352 645.39 320.43 640.56 86.55 701.6 118.11"/><polygon class="cls-62" points="760.61 83.71 701.6 118.11 640.56 86.55 699.58 52.15 760.61 83.71"/></g></g><g class="cls-59"><g class="cls-27"><polygon class="cls-63" points="837.88 31.56 846 424.98 786.99 459.39 778.86 65.96 837.88 31.56"/><polygon class="cls-64" points="778.86 65.96 786.99 459.39 725.95 427.82 717.83 34.4 778.86 65.96"/><polygon class="cls-65" points="837.88 31.56 778.86 65.96 717.83 34.4 776.85 0 837.88 31.56"/></g></g><g class="cls-59"><g class="cls-27"><polygon class="cls-66" points="920.25 168.18 925.01 398.29 865.99 432.69 861.24 202.59 920.25 168.18"/><polygon class="cls-67" points="861.24 202.59 865.99 432.69 804.96 401.13 800.21 171.02 861.24 202.59"/><polygon class="cls-68" points="920.25 168.18 861.24 202.59 800.21 171.02 859.22 136.62 920.25 168.18"/></g></g><g class="cls-59"><g class="cls-27"><polygon class="cls-69" points="999.65 264.9 1003.45 448.67 944.42 483.07 940.63 299.3 999.65 264.9"/><polygon class="cls-70" points="940.63 299.3 944.42 483.07 883.39 451.51 879.6 267.75 940.63 299.3"/><polygon class="cls-71" points="999.65 264.9 940.63 299.3 879.6 267.75 938.61 233.34 999.65 264.9"/></g></g></g></g><g class="cls-27"><polygon class="cls-72" points="672.85 551.58 673.88 601.43 445.09 615.74 444.06 565.89 672.85 551.58"/><path class="cls-16" d="M902.49,592.31l1,49.85c.27,12.85-3.07,26-10.38,39l-1-49.85C899.42,618.32,902.75,605.17,902.49,592.31Z" transform="translate(0 -45.5)"/><g class="cls-73"><g class="cls-27"><path class="cls-74" d="M902.49,592.31l1,49.85a69.4,69.4,0,0,1-.71,11.38l-1-49.85a69.4,69.4,0,0,0,.71-11.38" transform="translate(0 -45.5)"/><path class="cls-75" d="M901.78,603.69l1,49.85a73.58,73.58,0,0,1-2.53,11.17l-1-49.85a73.58,73.58,0,0,0,2.53-11.17" transform="translate(0 -45.5)"/><path class="cls-76" d="M899.25,614.87l1,49.85A82.23,82.23,0,0,1,895.85,676l-1-49.85a82.23,82.23,0,0,0,4.44-11.28" transform="translate(0 -45.5)"/><path class="cls-77" d="M894.82,626.15l1,49.85q-1.25,2.61-2.71,5.22l-1-49.85q1.46-2.61,2.71-5.22" transform="translate(0 -45.5)"/></g></g><path class="cls-17" d="M892.11,631.36l1,49.85c-37.62,67.11-166.28,106.16-287.38,87.23l-1-49.85C725.83,737.53,854.49,698.47,892.11,631.36Z" transform="translate(0 -45.5)"/><g class="cls-78"><g class="cls-27"><path class="cls-79" d="M892.11,631.36l1,49.85q-1.86,3.31-4,6.53l-1-49.85q2.15-3.22,4-6.53" transform="translate(0 -45.5)"/><path class="cls-80" d="M888.11,637.89l1,49.85a112.87,112.87,0,0,1-9.44,12.2l-1-49.85a112.87,112.87,0,0,0,9.44-12.2" transform="translate(0 -45.5)"/><path class="cls-81" d="M878.66,650.1l1,49.85a139,139,0,0,1-14.36,13.95l-1-49.85a139,139,0,0,0,14.36-13.95" transform="translate(0 -45.5)"/><path class="cls-82" d="M864.3,664l1,49.85A186.23,186.23,0,0,1,837.76,733l-1-49.85A186.23,186.23,0,0,0,864.3,664" transform="translate(0 -45.5)"/><path class="cls-83" d="M836.73,683.15l1,49.85a271.48,271.48,0,0,1-51.49,22.36l-1-49.85a271.48,271.48,0,0,0,51.49-22.36" transform="translate(0 -45.5)"/><path class="cls-84" d="M785.24,705.52l1,49.85A354.16,354.16,0,0,1,744.69,766l-1-49.85a354.16,354.16,0,0,0,41.58-10.61" transform="translate(0 -45.5)"/><path class="cls-85" d="M743.66,716.13l1,49.85q-13.6,2.63-27.76,4.33l-1-49.85q14.13-1.69,27.76-4.33" transform="translate(0 -45.5)"/><path class="cls-86" d="M715.9,720.46l1,49.85q-11.64,1.4-23.56,2.13l-1-49.85q11.9-.73,23.56-2.13" transform="translate(0 -45.5)"/><path class="cls-87" d="M692.34,722.59l1,49.85q-10.7.66-21.56.76l-1-49.85q10.85-.1,21.56-.76" transform="translate(0 -45.5)"/><path class="cls-88" d="M670.78,723.35l1,49.85q-10.26.1-20.61-.32l-1-49.85q10.34.42,20.61.32" transform="translate(0 -45.5)"/><path class="cls-89" d="M650.17,723l1,49.85q-10.13-.41-20.28-1.33l-1-49.85q10.15.92,20.28,1.33" transform="translate(0 -45.5)"/><path class="cls-90" d="M629.89,721.7l1,49.85q-10.29-.94-20.55-2.41l-1-49.85q10.25,1.48,20.55,2.41" transform="translate(0 -45.5)"/><path class="cls-91" d="M609.34,719.29l1,49.85-4.61-.69-1-49.85,4.61.69" transform="translate(0 -45.5)"/></g></g><g class="cls-48"><path class="cls-18" d="M902.49,592.31l1,49.85c.27,12.85-3.07,26-10.38,39l-1-49.85C899.42,618.32,902.75,605.17,902.49,592.31Z" transform="translate(0 -45.5)"/><g class="cls-73"><g class="cls-27"><path class="cls-92" d="M902.49,592.31l1,49.85a69.4,69.4,0,0,1-.71,11.38l-1-49.85a69.4,69.4,0,0,0,.71-11.38" transform="translate(0 -45.5)"/><path class="cls-93" d="M901.78,603.69l1,49.85a73.58,73.58,0,0,1-2.53,11.17l-1-49.85a73.58,73.58,0,0,0,2.53-11.17" transform="translate(0 -45.5)"/><path class="cls-94" d="M899.25,614.87l1,49.85A82.23,82.23,0,0,1,895.85,676l-1-49.85a82.23,82.23,0,0,0,4.44-11.28" transform="translate(0 -45.5)"/><path class="cls-95" d="M894.82,626.15l1,49.85q-1.25,2.61-2.71,5.22l-1-49.85q1.46-2.61,2.71-5.22" transform="translate(0 -45.5)"/></g></g></g><g class="cls-48"><path class="cls-19" d="M892.11,631.36l1,49.85c-37.62,67.11-166.28,106.16-287.38,87.23l-1-49.85C725.83,737.53,854.49,698.47,892.11,631.36Z" transform="translate(0 -45.5)"/><g class="cls-78"><g class="cls-27"><path class="cls-96" d="M892.11,631.36l1,49.85q-1.86,3.31-4,6.53l-1-49.85q2.15-3.22,4-6.53" transform="translate(0 -45.5)"/><path class="cls-97" d="M888.11,637.89l1,49.85a112.87,112.87,0,0,1-9.44,12.2l-1-49.85a112.87,112.87,0,0,0,9.44-12.2" transform="translate(0 -45.5)"/><path class="cls-98" d="M878.66,650.1l1,49.85a139,139,0,0,1-14.36,13.95l-1-49.85a139,139,0,0,0,14.36-13.95" transform="translate(0 -45.5)"/><path class="cls-99" d="M864.3,664l1,49.85A186.23,186.23,0,0,1,837.76,733l-1-49.85A186.23,186.23,0,0,0,864.3,664" transform="translate(0 -45.5)"/><path class="cls-100" d="M836.73,683.15l1,49.85a271.48,271.48,0,0,1-51.49,22.36l-1-49.85a271.48,271.48,0,0,0,51.49-22.36" transform="translate(0 -45.5)"/><path class="cls-101" d="M785.24,705.52l1,49.85A354.16,354.16,0,0,1,744.69,766l-1-49.85a354.16,354.16,0,0,0,41.58-10.61" transform="translate(0 -45.5)"/><path class="cls-102" d="M743.66,716.13l1,49.85q-13.6,2.63-27.76,4.33l-1-49.85q14.13-1.69,27.76-4.33" transform="translate(0 -45.5)"/><path class="cls-103" d="M715.9,720.46l1,49.85q-11.64,1.4-23.56,2.13l-1-49.85q11.9-.73,23.56-2.13" transform="translate(0 -45.5)"/><path class="cls-104" d="M692.34,722.59l1,49.85q-10.7.66-21.56.76l-1-49.85q10.85-.1,21.56-.76" transform="translate(0 -45.5)"/><path class="cls-105" d="M670.78,723.35l1,49.85q-10.26.1-20.61-.32l-1-49.85q10.34.42,20.61.32" transform="translate(0 -45.5)"/><path class="cls-106" d="M650.17,723l1,49.85q-10.13-.41-20.28-1.33l-1-49.85q10.15.92,20.28,1.33" transform="translate(0 -45.5)"/><path class="cls-107" d="M629.89,721.7l1,49.85q-10.29-.94-20.55-2.41l-1-49.85q10.25,1.48,20.55,2.41" transform="translate(0 -45.5)"/><path class="cls-108" d="M609.34,719.29l1,49.85-4.61-.69-1-49.85,4.61.69" transform="translate(0 -45.5)"/></g></g></g><path class="cls-109" d="M892.11,631.36c-37.62,67.11-166.28,106.16-287.38,87.23l68.12-121.51L444.06,611.39c-2.54-15.84.39-32.29,9.52-48.59,37.61-67.11,166.27-106.16,287.37-87.23,41.19,6.44,76.2,18.76,103,34.85C895.91,541.65,916.93,587.08,892.11,631.36Z" transform="translate(0 -45.5)"/></g><g class="cls-27"><path class="cls-2" d="M389,696.52l1,49.85c-32.19-19.63-52.27-44.77-56.58-71.67l-1-49.85C336.78,651.75,356.85,676.89,389,696.52Z" transform="translate(0 -45.5)"/><g class="cls-110"><g class="cls-27"><path class="cls-2" d="M389,696.52l1,49.85c-32.19-19.63-52.27-44.77-56.58-71.67l-1-49.85c4.32,26.9,24.39,52,56.58,71.67" transform="translate(0 -45.5)"/></g></g><path class="cls-3" d="M389,696.52l1,49.85c-32.19-19.63-52.27-44.77-56.58-71.67l-1-49.85C336.78,651.75,356.85,676.89,389,696.52Z" transform="translate(0 -45.5)"/><g class="cls-110"><g class="cls-27"><path class="cls-3" d="M389,696.52l1,49.85c-32.19-19.63-52.27-44.77-56.58-71.67l-1-49.85c4.32,26.9,24.39,52,56.58,71.67" transform="translate(0 -45.5)"/></g></g><polygon class="cls-111" points="561.25 565.03 562.28 614.88 390.08 700.87 389.05 651.02 561.25 565.03"/><path class="cls-112" d="M389,696.52c-32.19-19.63-52.27-44.77-56.58-71.67l228.79-14.32Z" transform="translate(0 -45.5)"/></g><path class="cls-1" d="M458.78,697.5l1,49.85-1.14-.69-1-49.85Z" transform="translate(0 -45.5)"/><g class="cls-44"><g class="cls-27"><path class="cls-1" d="M458.78,697.5l1,49.85-1.14-.69-1-49.85,1.14.69" transform="translate(0 -45.5)"/></g></g><path class="cls-1" d="M561.77,732.35l1,49.85c-41.19-6.44-76.21-18.76-103-34.86l-1-49.85C485.56,713.59,520.58,725.91,561.77,732.35Z" transform="translate(0 -45.5)"/><g class="cls-46"><g class="cls-27"><path class="cls-1" d="M561.77,732.35l1,49.85q-8.47-1.32-16.59-3l-1-49.85q8.11,1.65,16.59,3" transform="translate(0 -45.5)"/><path class="cls-1" d="M545.18,729.38l1,49.85q-11.61-2.36-22.45-5.34l-1-49.85q10.84,3,22.45,5.34" transform="translate(0 -45.5)"/><path class="cls-1" d="M522.73,724l1,49.85q-13.52-3.72-25.78-8.33l-1-49.85q12.24,4.6,25.78,8.33" transform="translate(0 -45.5)"/><path class="cls-1" d="M496.95,715.7l1,49.85a233.69,233.69,0,0,1-38.17-18.21l-1-49.85a233.69,233.69,0,0,0,38.17,18.21" transform="translate(0 -45.5)"/></g></g><path class="cls-1" d="M458.78,697.5l1,49.85-1.14-.69-1-49.85Z" transform="translate(0 -45.5)"/><g class="cls-44"><g class="cls-27"><path class="cls-1" d="M458.78,697.5l1,49.85-1.14-.69-1-49.85,1.14.69" transform="translate(0 -45.5)"/></g></g><g class="cls-45"><path class="cls-1" d="M561.77,732.35l1,49.85c-41.19-6.44-76.21-18.76-103-34.86l-1-49.85C485.56,713.59,520.58,725.91,561.77,732.35Z" transform="translate(0 -45.5)"/><g class="cls-46"><g class="cls-27"><path class="cls-1" d="M561.77,732.35l1,49.85q-8.47-1.32-16.59-3l-1-49.85q8.11,1.65,16.59,3" transform="translate(0 -45.5)"/><path class="cls-1" d="M545.18,729.38l1,49.85q-11.61-2.36-22.45-5.34l-1-49.85q10.84,3,22.45,5.34" transform="translate(0 -45.5)"/><path class="cls-1" d="M522.73,724l1,49.85q-13.52-3.72-25.78-8.33l-1-49.85q12.24,4.6,25.78,8.33" transform="translate(0 -45.5)"/><path class="cls-1" d="M496.95,715.7l1,49.85a233.69,233.69,0,0,1-38.17-18.21l-1-49.85a233.69,233.69,0,0,0,38.17,18.21" transform="translate(0 -45.5)"/></g></g></g><g class="cls-27"><path class="cls-4" d="M458.78,697.5l1,49.85-1.14-.69-1-49.85Z" transform="translate(0 -45.5)"/><g class="cls-113"><g class="cls-27"><path class="cls-4" d="M458.78,697.5l1,49.85-1.14-.69-1-49.85,1.14.69" transform="translate(0 -45.5)"/></g></g><polygon class="cls-114" points="629.88 565.34 630.91 615.19 562.8 736.7 561.77 686.85 629.88 565.34"/><path class="cls-5" d="M561.77,732.35l1,49.85c-41.19-6.44-76.21-18.76-103-34.86l-1-49.85C485.56,713.59,520.58,725.91,561.77,732.35Z" transform="translate(0 -45.5)"/><g class="cls-115"><g class="cls-27"><path class="cls-116" d="M561.77,732.35l1,49.85q-8.47-1.32-16.59-3l-1-49.85q8.11,1.65,16.59,3" transform="translate(0 -45.5)"/><path class="cls-117" d="M545.18,729.38l1,49.85q-11.61-2.36-22.45-5.34l-1-49.85q10.84,3,22.45,5.34" transform="translate(0 -45.5)"/><path class="cls-118" d="M522.73,724l1,49.85q-13.52-3.72-25.78-8.33l-1-49.85q12.24,4.6,25.78,8.33" transform="translate(0 -45.5)"/><path class="cls-119" d="M496.95,715.7l1,49.85a233.69,233.69,0,0,1-38.17-18.21l-1-49.85a233.69,233.69,0,0,0,38.17,18.21" transform="translate(0 -45.5)"/></g></g><path class="cls-120" d="M458.78,697.5l-1.14-.69,172.24-86L561.77,732.35C520.58,725.91,485.56,713.59,458.78,697.5Z" transform="translate(0 -45.5)"/><path class="cls-6" d="M458.78,697.5l1,49.85-1.14-.69-1-49.85Z" transform="translate(0 -45.5)"/><g class="cls-113"><g class="cls-27"><path class="cls-6" d="M458.78,697.5l1,49.85-1.14-.69-1-49.85,1.14.69" transform="translate(0 -45.5)"/></g></g><g class="cls-45"><path class="cls-7" d="M561.77,732.35l1,49.85c-41.19-6.44-76.21-18.76-103-34.86l-1-49.85C485.56,713.59,520.58,725.91,561.77,732.35Z" transform="translate(0 -45.5)"/><g class="cls-115"><g class="cls-27"><path class="cls-121" d="M561.77,732.35l1,49.85q-8.47-1.32-16.59-3l-1-49.85q8.11,1.65,16.59,3" transform="translate(0 -45.5)"/><path class="cls-122" d="M545.18,729.38l1,49.85q-11.61-2.36-22.45-5.34l-1-49.85q10.84,3,22.45,5.34" transform="translate(0 -45.5)"/><path class="cls-123" d="M522.73,724l1,49.85q-13.52-3.72-25.78-8.33l-1-49.85q12.24,4.6,25.78,8.33" transform="translate(0 -45.5)"/><path class="cls-124" d="M496.95,715.7l1,49.85a233.69,233.69,0,0,1-38.17-18.21l-1-49.85a233.69,233.69,0,0,0,38.17,18.21" transform="translate(0 -45.5)"/></g></g></g></g><g class="cls-125"><g class="cls-126"><g class="cls-127"><g class="cls-27"><path class="cls-10" d="M389,667.52l1,49.85c-32.19-19.63-52.27-44.77-56.58-71.67l-1-49.85C336.78,622.75,356.85,647.89,389,667.52Z" transform="translate(0 -45.5)"/><g class="cls-128"><g class="cls-27"><path class="cls-10" d="M389,667.52l1,49.85c-32.19-19.63-52.27-44.77-56.58-71.67l-1-49.85c4.32,26.9,24.39,52,56.58,71.67" transform="translate(0 -45.5)"/></g></g><path class="cls-11" d="M389,667.52l1,49.85c-32.19-19.63-52.27-44.77-56.58-71.67l-1-49.85C336.78,622.75,356.85,647.89,389,667.52Z" transform="translate(0 -45.5)"/><g class="cls-128"><g class="cls-27"><path class="cls-11" d="M389,667.52l1,49.85c-32.19-19.63-52.27-44.77-56.58-71.67l-1-49.85c4.32,26.9,24.39,52,56.58,71.67" transform="translate(0 -45.5)"/></g></g><polygon class="cls-129" points="561.25 536.03 562.28 585.88 390.08 671.87 389.05 622.02 561.25 536.03"/><path class="cls-130" d="M389,667.52c-32.19-19.63-52.27-44.77-56.58-71.67l228.79-14.32Z" transform="translate(0 -45.5)"/></g></g><g class="cls-127"><g class="cls-27"><path class="cls-12" d="M458.78,684.5l1,49.85-1.14-.69-1-49.85Z" transform="translate(0 -45.5)"/><g class="cls-131"><g class="cls-27"><path class="cls-12" d="M458.78,684.5l1,49.85-1.14-.69-1-49.85,1.14.69" transform="translate(0 -45.5)"/></g></g><polygon class="cls-132" points="629.88 552.34 630.91 602.19 562.8 723.7 561.77 673.85 629.88 552.34"/><path class="cls-13" d="M561.77,719.35l1,49.85c-41.19-6.44-76.21-18.76-103-34.86l-1-49.85C485.56,700.59,520.58,712.91,561.77,719.35Z" transform="translate(0 -45.5)"/><g class="cls-133"><g class="cls-27"><path class="cls-134" d="M561.77,719.35l1,49.85q-8.47-1.32-16.59-3l-1-49.85q8.11,1.65,16.59,3" transform="translate(0 -45.5)"/><path class="cls-135" d="M545.18,716.38l1,49.85q-11.61-2.36-22.45-5.34l-1-49.85q10.84,3,22.45,5.34" transform="translate(0 -45.5)"/><path class="cls-136" d="M522.73,711l1,49.85q-13.52-3.72-25.78-8.33l-1-49.85q12.24,4.6,25.78,8.33" transform="translate(0 -45.5)"/><path class="cls-137" d="M496.95,702.7l1,49.85a233.69,233.69,0,0,1-38.17-18.21l-1-49.85a233.69,233.69,0,0,0,38.17,18.21" transform="translate(0 -45.5)"/></g></g><path class="cls-138" d="M458.78,684.5l-1.14-.69,172.24-86L561.77,719.35C520.58,712.91,485.56,700.59,458.78,684.5Z" transform="translate(0 -45.5)"/><path class="cls-14" d="M458.78,684.5l1,49.85-1.14-.69-1-49.85Z" transform="translate(0 -45.5)"/><g class="cls-131"><g class="cls-27"><path class="cls-14" d="M458.78,684.5l1,49.85-1.14-.69-1-49.85,1.14.69" transform="translate(0 -45.5)"/></g></g><g class="cls-45"><path class="cls-15" d="M561.77,719.35l1,49.85c-41.19-6.44-76.21-18.76-103-34.86l-1-49.85C485.56,700.59,520.58,712.91,561.77,719.35Z" transform="translate(0 -45.5)"/><g class="cls-133"><g class="cls-27"><path class="cls-139" d="M561.77,719.35l1,49.85q-8.47-1.32-16.59-3l-1-49.85q8.11,1.65,16.59,3" transform="translate(0 -45.5)"/><path class="cls-140" d="M545.18,716.38l1,49.85q-11.61-2.36-22.45-5.34l-1-49.85q10.84,3,22.45,5.34" transform="translate(0 -45.5)"/><path class="cls-141" d="M522.73,711l1,49.85q-13.52-3.72-25.78-8.33l-1-49.85q12.24,4.6,25.78,8.33" transform="translate(0 -45.5)"/><path class="cls-142" d="M496.95,702.7l1,49.85a233.69,233.69,0,0,1-38.17-18.21l-1-49.85a233.69,233.69,0,0,0,38.17,18.21" transform="translate(0 -45.5)"/></g></g></g></g></g></g></g><path class="cls-143" d="M496.84,187" transform="translate(0 -45.5)"/><g class="cls-144"><path class="cls-145" d="M892.11,631.36c-37.62,67.11-166.28,106.16-287.38,87.23l68.12-121.51L444.06,611.39c-2.54-15.84.39-32.29,9.52-48.59,37.61-67.11,166.27-106.16,287.37-87.23,41.19,6.44,76.2,18.76,103,34.85C895.91,541.65,916.93,587.08,892.11,631.36Z" transform="translate(0 -45.5)"/></g></g></g></svg>