<svg xmlns="http://www.w3.org/2000/svg" xmlns:xlink="http://www.w3.org/1999/xlink" viewBox="0 0 55.01 55.01"><defs><style>.cls-1,.cls-4{fill:none;}.cls-2{fill:#61dfb6;stroke:#61dfb6;stroke-miterlimit:10;stroke-width:3px;}.cls-3{clip-path:url(#clip-path);}.cls-4{stroke:#fff;stroke-linecap:round;stroke-linejoin:round;stroke-width:4px;}.cls-5,.cls-6{fill:#fff;}.cls-6{opacity:0.7;}</style><clipPath id="clip-path"><circle class="cls-1" cx="27.5" cy="27.5" r="26"/></clipPath></defs><title>торговля меню</title><g id="Слой_2" data-name="Слой 2"><g id="Слой_1-2" data-name="Слой 1"><circle class="cls-2" cx="27.5" cy="27.5" r="26"/><circle class="cls-1" cx="27.5" cy="27.5" r="26"/><g class="cls-3"><polyline class="cls-4" points="8.32 33.02 16.74 24.71 24.32 32.28 41.07 15.53"/><polygon class="cls-5" points="35.83 12.14 44.45 20.76 45.72 11.03 35.83 12.14"/><polygon class="cls-6" points="42.34 44.66 35.89 44.66 35.89 28.29 42.34 21.79 42.34 44.66"/><polygon class="cls-6" points="33.59 44.66 27.14 44.66 27.14 36.98 33.59 30.57 33.59 44.66"/><polygon class="cls-6" points="24.55 44.66 18.1 44.66 18.1 32.72 24.55 39.24 24.55 44.66"/><polygon class="cls-6" points="15.58 44.66 9.13 44.66 9.13 39.39 15.58 33.02 15.58 44.66"/></g></g></g></svg>