<svg xmlns="http://www.w3.org/2000/svg" xmlns:xlink="http://www.w3.org/1999/xlink" viewBox="0 0 55.01 55.01"><defs><style>.cls-1{fill:none;}.cls-2{fill:#72cef2;stroke:#72cef2;stroke-miterlimit:10;stroke-width:3px;}.cls-3{clip-path:url(#clip-path);}.cls-4,.cls-5{fill:#fff;}.cls-4{opacity:0.5;}</style><clipPath id="clip-path"><circle class="cls-1" cx="27.5" cy="27.5" r="26"/></clipPath></defs><title>кошелек меню</title><g id="Слой_2" data-name="Слой 2"><g id="Слой_1-2" data-name="Слой 1"><circle class="cls-2" cx="27.5" cy="27.5" r="26"/><g class="cls-3"><path class="cls-4" d="M37,21.47,10.57,41.11a1,1,0,0,1-1.37-.93V20.77a1,1,0,0,1,.7-.93l26.41-8.62a1,1,0,0,1,1.37.93v8.39A1,1,0,0,1,37,21.47Z"/><path class="cls-5" d="M31.55,32.84a1.09,1.09,0,0,0,1,1.12H43.93V40.4a1.19,1.19,0,0,1-1.22,1.15H10.43A1.18,1.18,0,0,1,9.21,40.4V21.24a1.2,1.2,0,0,1,1.22-1.17H42.7a1.2,1.2,0,0,1,1.22,1.17v6.53H32.59a1.11,1.11,0,0,0-1,1.13Z"/><path class="cls-4" d="M45.8,28.61v4.53a.88.88,0,0,1-.83.8l-.14,0H32.51a.91.91,0,0,1-1-.82V28.61a.92.92,0,0,1,1-.83H44.83c.05,0,.09,0,.14,0A.89.89,0,0,1,45.8,28.61Z"/></g></g></g></svg>